<svg width="30" height="30" viewBox="0 0 30 30" fill="none" xmlns="http://www.w3.org/2000/svg">
<g clip-path="url(#clip0)">
<path fill-rule="evenodd" clip-rule="evenodd" d="M15 2.5H17.5V5H20V9.6275L28.75 12.9V28.75H30V30H0V28.75H1.25V15H8.75V5H11.25V2.5H13.75V0H15V2.5ZM18.75 6.25H10V28.75H11.25V26.25H17.5V28.75H18.75V6.25ZM16.25 27.5H12.5V28.75H16.25V27.5ZM26.25 28.75H27.5V13.7662L20 10.9625V28.75H21.25V26.25H26.25V28.75ZM8.75 16.25H2.5V28.75H3.75V26.25H7.5V28.75H8.75V16.25ZM6.25 27.5H5V28.75H6.25V27.5ZM25 27.5H22.5V28.75H25V27.5ZM5 21.25V23.75H3.75V21.25H5ZM7.5 21.25V23.75H6.25V21.25H7.5ZM13.75 8.75V23.75H12.5V8.75H13.75ZM26.25 22.5V23.75H21.25V22.5H26.25ZM16.25 8.75V23.75H15V8.75H16.25ZM26.25 20V21.25H21.25V20H26.25ZM5 17.5V20H3.75V17.5H5ZM7.5 17.5V20H6.25V17.5H7.5ZM26.25 17.5V18.75H21.25V17.5H26.25ZM26.25 15V16.25H21.25V15H26.25ZM16.25 3.75H12.5V5H16.25V3.75Z" fill="white" stroke="white" stroke-width="0.5"/>
</g>
<defs>
<clipPath id="clip0">
<rect width="30" height="30" fill="white"/>
</clipPath>
</defs>
</svg>
