<?xml version="1.0" encoding="UTF-8" standalone="no"?>
<svg
   xmlns:dc="http://purl.org/dc/elements/1.1/"
   xmlns:cc="http://creativecommons.org/ns#"
   xmlns:rdf="http://www.w3.org/1999/02/22-rdf-syntax-ns#"
   xmlns:svg="http://www.w3.org/2000/svg"
   xmlns="http://www.w3.org/2000/svg"
   xmlns:sodipodi="http://sodipodi.sourceforge.net/DTD/sodipodi-0.dtd"
   xmlns:inkscape="http://www.inkscape.org/namespaces/inkscape"
   version="1.1"
   id="Layer_1"
   x="0px"
   y="0px"
   width="60px"
   height="48px"
   viewBox="-4 -4 60 48"
   enable-background="new -4 -4 60 48"
   xml:space="preserve"
   sodipodi:docname="dots-alt.svg"
   inkscape:version="1.0.1 (3bc2e813f5, 2020-09-07)"><metadata
   id="metadata49"><rdf:RDF><cc:Work
       rdf:about=""><dc:format>image/svg+xml</dc:format><dc:type
         rdf:resource="http://purl.org/dc/dcmitype/StillImage" /><dc:title></dc:title></cc:Work></rdf:RDF></metadata><defs
   id="defs47" /><sodipodi:namedview
   pagecolor="#64a1dd"
   bordercolor="#666666"
   borderopacity="0"
   objecttolerance="10"
   gridtolerance="10"
   guidetolerance="10"
   inkscape:pageopacity="0"
   inkscape:pageshadow="2"
   inkscape:window-width="1920"
   inkscape:window-height="1017"
   id="namedview45"
   showgrid="false"
   inkscape:zoom="11.313709"
   inkscape:cx="36.777204"
   inkscape:cy="15.101682"
   inkscape:window-x="-8"
   inkscape:window-y="-8"
   inkscape:window-maximized="1"
   inkscape:current-layer="Layer_1" />
<g
   id="g42">
	<circle
   fill="#D9083C"
   cx="-2"
   cy="-2"
   r="2"
   id="circle2" />
	<circle
   fill="#D9083C"
   cx="10"
   cy="-2"
   r="2"
   id="circle4" />
	<circle
   fill="#D9083C"
   cx="22"
   cy="-2"
   r="2"
   id="circle6" />
	<circle
   fill="#D9083C"
   cx="34"
   cy="-2"
   r="2"
   id="circle8" />
	<circle
   fill="#D9083C"
   cx="46"
   cy="-2"
   r="2"
   id="circle10" />
	<circle
   fill="#D9083C"
   cx="-2"
   cy="10"
   r="2"
   id="circle12" />
	<circle
   fill="#D9083C"
   cx="10"
   cy="10"
   r="2"
   id="circle14" />
	<circle
   fill="#D9083C"
   cx="22"
   cy="10"
   r="2"
   id="circle16" />
	<circle
   fill="#D9083C"
   cx="34"
   cy="10"
   r="2"
   id="circle18" />
	<circle
   fill="#D9083C"
   cx="46"
   cy="10"
   r="2"
   id="circle20" />
	<circle
   fill="#D9083C"
   cx="-2"
   cy="22"
   r="2"
   id="circle22" />
	<circle
   fill="#D9083C"
   cx="10"
   cy="22"
   r="2"
   id="circle24" />
	<circle
   fill="#D9083C"
   cx="22"
   cy="22"
   r="2"
   id="circle26" />
	<circle
   fill="#D9083C"
   cx="34"
   cy="22"
   r="2"
   id="circle28" />
	<circle
   fill="#D9083C"
   cx="46"
   cy="22"
   r="2"
   id="circle30" />
	<circle
   fill="#D9083C"
   cx="-2"
   cy="34"
   r="2"
   id="circle32" />
	<circle
   fill="#D9083C"
   cx="10"
   cy="34"
   r="2"
   id="circle34" />
	<circle
   fill="#D9083C"
   cx="22"
   cy="34"
   r="2"
   id="circle36" />
	<circle
   fill="#D9083C"
   cx="34"
   cy="34"
   r="2"
   id="circle38" />
	<circle
   fill="#D9083C"
   cx="46"
   cy="34"
   r="2"
   id="circle40" />
</g>
<path
   style="fill:#005c47;fill-opacity:1;stroke:#f4f4f4;stroke-width:0.0152912;stroke-miterlimit:4;stroke-dasharray:0, 0.168203;stroke-dashoffset:0"
   d="M 1.4498847,15.862061 C 0.43648722,15.534484 -0.1326448,14.532015 0.12684455,13.531658 0.50835968,12.060879 2.2636223,11.566835 3.3526564,12.623707 c 0.7041199,0.683325 0.7824258,1.735247 0.1900475,2.553001 -0.4396496,0.606919 -1.3813915,0.915319 -2.0928192,0.685353 z"
   id="path932"
   transform="translate(-4,-4)" /><path
   style="fill:#005c47;fill-opacity:1;stroke:#f4f4f4;stroke-width:0.0152912;stroke-miterlimit:4;stroke-dasharray:0, 0.168203;stroke-dashoffset:0"
   d="m 13.562729,15.901249 c -1.015887,-0.242254 -1.717513,-1.381768 -1.4538,-2.361123 0.473801,-1.759562 2.802397,-1.992689 3.639943,-0.364412 0.226561,0.440457 0.224228,1.205413 -0.005,1.654827 -0.235928,0.462457 -0.815157,0.939189 -1.284798,1.057445 -0.428934,0.108007 -0.494896,0.108983 -0.896299,0.01326 z"
   id="path934"
   transform="translate(-4,-4)" /><path
   style="fill:#005c47;fill-opacity:1;stroke:#f4f4f4;stroke-width:0.0152912;stroke-miterlimit:4;stroke-dasharray:0, 0.168203;stroke-dashoffset:0"
   d="m 25.596078,15.906712 c -0.442849,-0.11415 -0.810339,-0.343095 -1.084398,-0.675577 -1.044061,-1.266627 -0.155508,-3.162649 1.482146,-3.162649 2.041462,0 2.688819,2.72195 0.869897,3.657668 -0.38889,0.200059 -0.906156,0.273736 -1.267645,0.180558 z"
   id="path936"
   transform="translate(-4,-4)" /><path
   style="fill:#005c47;fill-opacity:1;stroke:#f4f4f4;stroke-width:0.0152912;stroke-miterlimit:4;stroke-dasharray:0, 0.168203;stroke-dashoffset:0"
   d="m 37.572127,15.906333 c -1.810981,-0.57828 -2.052389,-2.799934 -0.397175,-3.655169 0.409424,-0.211546 1.204277,-0.247476 1.547178,-0.06994 0.744923,0.385687 1.236405,1.108665 1.23425,1.815602 -0.0012,0.399366 -0.265953,1.046304 -0.555108,1.356524 -0.409268,0.439082 -1.321848,0.71497 -1.829145,0.552981 z"
   id="path938"
   transform="translate(-4,-4)" /><path
   style="fill:#005c47;fill-opacity:1;stroke:#f4f4f4;stroke-width:0.0152912;stroke-miterlimit:4;stroke-dasharray:0, 0.168203;stroke-dashoffset:0"
   d="m 49.410082,15.852564 c -0.781986,-0.248493 -1.331796,-1.012834 -1.331796,-1.851448 0,-1.283598 1.246586,-2.220768 2.470509,-1.857301 0.90522,0.268821 1.516421,1.221035 1.377956,2.146769 -0.169522,1.133367 -1.421056,1.910136 -2.516669,1.56198 z"
   id="path940"
   transform="translate(-4,-4)" /><path
   style="fill:#005c47;fill-opacity:1;stroke:#f4f4f4;stroke-width:0.0152912;stroke-miterlimit:4;stroke-dasharray:0, 0.168203;stroke-dashoffset:0"
   d="m 49.195767,27.771369 c -0.70586,-0.371464 -1.117481,-1.021901 -1.117481,-1.765826 0,-1.927888 2.443172,-2.671639 3.517923,-1.070928 0.362192,0.539441 0.436339,0.989612 0.261856,1.589815 -0.152011,0.522896 -0.52383,0.96003 -1.041013,1.223876 -0.411667,0.210017 -1.243546,0.221851 -1.621285,0.02306 z"
   id="path942"
   transform="translate(-4,-4)" /><path
   style="fill:#005c47;fill-opacity:1;stroke:#f4f4f4;stroke-width:0.0152912;stroke-miterlimit:4;stroke-dasharray:0, 0.168203;stroke-dashoffset:0"
   d="m 37.174952,27.75517 c -1.572835,-0.74933 -1.415848,-3.050018 0.245776,-3.601921 1.296525,-0.430637 2.696058,0.730342 2.514266,2.085703 -0.06682,0.498186 -0.453024,1.111052 -0.876907,1.391565 -0.480072,0.317696 -1.356208,0.375691 -1.883135,0.124653 z"
   id="path944"
   transform="translate(-4,-4)" /><path
   style="fill:#005c47;fill-opacity:1;stroke:#f4f4f4;stroke-width:0.0152912;stroke-miterlimit:4;stroke-dasharray:0, 0.168203;stroke-dashoffset:0"
   d="m 25.28936,27.824278 c -0.667216,-0.280421 -1.237919,-1.09241 -1.238721,-1.762441 -0.0013,-1.067462 0.931657,-2.032932 1.964426,-2.032932 0.396555,0 0.987907,0.265599 1.32595,0.595536 0.901275,0.879662 0.759326,2.302569 -0.299612,3.003342 -0.289902,0.191848 -0.485507,0.246433 -0.949421,0.264943 -0.32136,0.01282 -0.68254,-0.01798 -0.802622,-0.06845 z"
   id="path946"
   transform="translate(-4,-4)" /><path
   style="fill:#005c47;fill-opacity:1;stroke:#f4f4f4;stroke-width:0.0152912;stroke-miterlimit:4;stroke-dasharray:0, 0.168203;stroke-dashoffset:0"
   d="m 13.265904,27.801482 c -0.836605,-0.43699 -1.19439,-0.973671 -1.189219,-1.783839 0.0073,-1.137834 0.801889,-1.932341 1.94052,-1.94023 1.638167,-0.01135 2.517181,1.958286 1.427712,3.199123 -0.152431,0.173609 -0.436588,0.388085 -0.631459,0.476614 -0.416836,0.189364 -1.228992,0.214729 -1.547554,0.04833 z"
   id="path948"
   transform="translate(-4,-4)" /><path
   style="fill:#005c47;fill-opacity:1;stroke:#f4f4f4;stroke-width:0.0152912;stroke-miterlimit:4;stroke-dasharray:0, 0.168203;stroke-dashoffset:0"
   d="m 1.2008944,27.771369 c -1.64967355,-0.868152 -1.43539618,-3.184262 0.3387941,-3.662002 1.0373986,-0.279342 2.1999717,0.504766 2.3942056,1.614795 0.1283493,0.733505 -0.370145,1.645824 -1.103791,2.020102 -0.4195859,0.214057 -1.2477789,0.227836 -1.6292087,0.0271 z"
   id="path950"
   transform="translate(-4,-4)" /><path
   style="fill:#005c47;fill-opacity:1;stroke:#f4f4f4;stroke-width:0.0152912;stroke-miterlimit:4;stroke-dasharray:0, 0.168203;stroke-dashoffset:0"
   d="M 1.2450886,39.79789 C -0.08153525,39.223264 -0.34622231,37.425676 0.76136059,36.512712 2.028069,35.468584 3.9155294,36.351664 3.9279718,37.994264 c 0.01037,1.369001 -1.4381331,2.342788 -2.6828832,1.803626 z"
   id="path952"
   transform="translate(-4,-4)" /><path
   style="fill:#005c47;fill-opacity:1;stroke:#f4f4f4;stroke-width:0.0152912;stroke-miterlimit:4;stroke-dasharray:0, 0.168203;stroke-dashoffset:0"
   d="m 13.216777,39.776932 c -0.197167,-0.09222 -0.500719,-0.333832 -0.674559,-0.536925 -0.68972,-0.805783 -0.654344,-1.803187 0.09121,-2.571689 0.647122,-0.667039 1.403137,-0.794399 2.229166,-0.37553 0.313964,0.159208 0.571014,0.375297 0.745053,0.626333 0.239437,0.345364 0.265712,0.450888 0.265712,1.067115 0,0.598564 -0.03041,0.729801 -0.243822,1.052291 -0.369717,0.55868 -0.860048,0.843234 -1.512151,0.877546 -0.394368,0.02075 -0.639829,-0.01717 -0.900609,-0.139141 z"
   id="path954"
   transform="translate(-4,-4)" /><path
   style="fill:#005c47;fill-opacity:1;stroke:#f4f4f4;stroke-width:0.0152912;stroke-miterlimit:4;stroke-dasharray:0, 0.168203;stroke-dashoffset:0"
   d="m 25.111307,39.699641 c -1.491015,-0.783649 -1.35152,-2.922017 0.230017,-3.526012 1.201171,-0.458731 2.597046,0.51674 2.597046,1.814879 0,1.010516 -0.808669,1.858704 -1.840902,1.930867 -0.422368,0.02953 -0.577792,-0.0051 -0.986161,-0.219734 z"
   id="path956"
   transform="translate(-4,-4)" /><path
   style="fill:#005c47;fill-opacity:1;stroke:#f4f4f4;stroke-width:0.0152912;stroke-miterlimit:4;stroke-dasharray:0, 0.168203;stroke-dashoffset:0"
   d="m 37.328648,39.820821 c -0.750343,-0.272128 -1.25855,-1.001441 -1.25855,-1.80611 0,-0.778917 0.380166,-1.388361 1.085209,-1.739699 0.821655,-0.409448 1.656407,-0.240744 2.290889,0.46299 0.882151,0.978436 0.547461,2.47155 -0.680254,3.034738 -0.39925,0.183148 -1.008659,0.203534 -1.437294,0.04808 z"
   id="path958"
   transform="translate(-4,-4)" /><path
   style="fill:#005c47;fill-opacity:1;stroke:#f4f4f4;stroke-width:0.0152912;stroke-miterlimit:4;stroke-dasharray:0, 0.168203;stroke-dashoffset:0"
   d="m 49.284155,39.81605 c -1.060278,-0.463188 -1.517654,-1.679736 -1.005604,-2.674747 0.731301,-1.421056 2.650994,-1.436035 3.434024,-0.02679 0.533438,0.96004 0.0588,2.249222 -0.98927,2.687028 -0.397134,0.165892 -1.076936,0.172748 -1.43915,0.01451 z"
   id="path960"
   transform="translate(-4,-4)" /><path
   style="fill:#005c47;fill-opacity:1;stroke:#f4f4f4;stroke-width:0.0152912;stroke-miterlimit:4;stroke-dasharray:0, 0.168203;stroke-dashoffset:0"
   d="M 49.394461,3.8386417 C 47.999647,3.3408816 47.616153,1.5977519 48.679439,0.58858461 c 1.02569,-0.97348393 2.781888,-0.48408843 3.180251,0.88623279 0.281323,0.9677167 -0.155784,1.8698974 -1.117127,2.3057287 -0.458915,0.2080525 -0.877364,0.2260852 -1.348102,0.058096 z"
   id="path962"
   transform="translate(-4,-4)" /><path
   style="fill:#005c47;fill-opacity:1;stroke:#f4f4f4;stroke-width:0.0152912;stroke-miterlimit:4;stroke-dasharray:0, 0.168203;stroke-dashoffset:0"
   d="M 37.451929,3.8736581 C 36.96677,3.7283177 36.520975,3.3377209 36.281415,2.8480774 35.836345,1.9383882 36.116297,0.92888355 36.970378,0.3636796 37.292053,0.1508052 37.42474,0.11985697 38.015743,0.11985697 c 0.60458,0 0.716861,0.0276759 1.050607,0.25896161 1.044224,0.72364792 1.171529,2.08036862 0.278623,2.96936182 -0.551434,0.549018 -1.20701,0.7309948 -1.893044,0.5254777 z"
   id="path964"
   transform="translate(-4,-4)" /><path
   style="fill:#005c47;fill-opacity:1;stroke:#f4f4f4;stroke-width:0.0152912;stroke-miterlimit:4;stroke-dasharray:0, 0.168203;stroke-dashoffset:0"
   d="M 25.377903,3.8490163 C 24.908535,3.6994517 24.262798,3.0243425 24.136799,2.5514594 c -0.218748,-0.820977 0.119998,-1.72932927 0.816895,-2.19051362 0.31694,-0.20974094 0.452184,-0.24108881 1.040132,-0.24108881 0.5898,0 0.72272,0.0310351 1.044263,0.24382263 1.088124,0.7200865 1.202986,2.1712277 0.241975,3.0570571 -0.552837,0.5095871 -1.193979,0.6539429 -1.902161,0.4282796 z"
   id="path966"
   transform="translate(-4,-4)" /><path
   style="fill:#005c47;fill-opacity:1;stroke:#f4f4f4;stroke-width:0.0152912;stroke-miterlimit:4;stroke-dasharray:0, 0.168203;stroke-dashoffset:0"
   d="M 13.265904,3.7860104 C 12.465373,3.4120866 12.080823,2.824985 12.08036,1.9760123 c -3.16e-4,-0.5804724 0.135948,-0.9150361 0.535363,-1.31445101 0.804988,-0.80498836 2.095882,-0.77963867 2.829194,0.0555578 0.365756,0.41657341 0.500691,0.85543821 0.455424,1.48123751 -0.0263,0.3636519 -0.105809,0.6167893 -0.273132,0.8696311 -0.500727,0.7566502 -1.577578,1.0840976 -2.361305,0.7180227 z"
   id="path968"
   transform="translate(-4,-4)" /><path
   style="fill:#005c47;fill-opacity:1;stroke:#f4f4f4;stroke-width:0.0152912;stroke-miterlimit:4;stroke-dasharray:0, 0.168203;stroke-dashoffset:0"
   d="M 1.3995887,3.8386417 C -0.006813,3.3367466 -0.38755262,1.6061351 0.6845666,0.58858461 1.477141,-0.1636494 2.7410868,-0.07871533 3.4726366,0.77593611 4.2983676,1.740617 3.9999339,3.1353429 2.8423266,3.7216821 2.3163336,3.9881026 1.9105793,4.0209963 1.3995887,3.8386417 Z"
   id="path970"
   transform="translate(-4,-4)" /></svg>
