<svg width="319" height="100" viewBox="0 0 319 100" fill="none" xmlns="http://www.w3.org/2000/svg">
<path fill-rule="evenodd" clip-rule="evenodd" d="M16.8253 10.145H13.6328V7.24646H16.8253V10.145ZM23.1887 10.145H20.0209V7.24646H23.1887V10.145ZM7.24609 10.145H10.4448L10.4386 7.24648H7.24609V10.145Z" fill="#52C1EF"/>
<path fill-rule="evenodd" clip-rule="evenodd" d="M96.749 72.7105C98.7251 73.7545 99.9582 75.7939 99.9551 78.0128L100 99.2839H96.9686L96.9197 78.0128C96.9766 76.9047 96.4123 75.8558 95.4522 75.2849C94.492 74.714 93.2924 74.714 92.3323 75.2849C91.3722 75.8558 90.8079 76.9047 90.8647 78.0128V82.5298H87.8216V75.0227C87.7396 73.4252 86.4084 72.1715 84.794 72.1715C83.1796 72.1715 81.8484 73.4252 81.7665 75.0227V82.5298H78.7351V72.0075C78.6532 70.4099 77.322 69.1563 75.7076 69.1563C74.0931 69.1563 72.762 70.4099 72.68 72.0075V82.5298H69.6408V57.0068C69.6976 55.8987 69.1333 54.8499 68.1732 54.2789C67.2131 53.708 66.0135 53.708 65.0534 54.2789C64.0932 54.8499 63.5289 55.8987 63.5858 57.0068V91.5252H60.5543V78.0108L57.5502 78.0689C55.8765 78.07 54.5199 79.4141 54.5188 81.0725L54.4954 93.2244L57.4213 98.5678L54.7571 100L51.4659 93.983L51.4893 82.5395H5.55501C2.4884 82.5363 0.00322971 80.0739 0 77.0354V46.229H3.03143V77.0354C3.0325 78.4163 4.16141 79.5357 5.55501 79.5378H51.6847C52.3899 76.9099 54.7864 75.0773 57.5307 75.0672L60.5504 75.0072V59.7859C56.7452 59.0031 54.1548 55.4945 54.5541 51.6642C54.9535 47.8339 58.213 44.924 62.0993 44.9285H82.3037C85.0392 44.8849 87.5859 46.306 88.9665 48.6463C90.3471 50.9866 90.3471 53.8826 88.9665 56.2229C87.5859 58.5632 85.0392 59.9843 82.3037 59.9407H72.68V66.8073C74.2438 65.9101 76.1302 65.7517 77.824 66.3755C79.5178 66.9994 80.8418 68.3401 81.4345 70.0315C82.9902 68.9982 84.941 68.7365 86.7181 69.3225C88.4951 69.9086 89.8985 71.2764 90.519 73.0274C92.3767 71.7884 94.773 71.6665 96.749 72.7105ZM60.5637 56.6758C60.7449 53.493 63.4015 51.0035 66.6188 51.0014H66.6246C69.9419 51.0075 72.6391 53.6524 72.6797 56.939H82.3033C84.7773 56.8881 86.7562 54.8864 86.7562 52.4345C86.7562 49.9826 84.7773 47.9809 82.3033 47.93H62.0951C59.8857 47.9327 57.998 49.5085 57.6204 51.6653C57.2427 53.8222 58.4844 55.9359 60.5637 56.6758Z" fill="#52C1EF"/>
<path fill-rule="evenodd" clip-rule="evenodd" d="M96.9699 18.5387H3.03202V42.8145H0V5.6615C0.00322572 2.53765 2.48738 0.00548255 5.55414 0H94.4439C97.5119 0.00329225 99.9978 2.53643 100 5.6615V71.0145H96.9699V18.5387ZM5.55561 3.08646C4.16097 3.08866 3.03153 4.2409 3.03153 5.6615V15.4502H96.9714V5.65951C96.9703 4.23891 95.84 3.08756 94.4454 3.08646H5.55561Z" fill="#52C1EF"/>
<path fill-rule="evenodd" clip-rule="evenodd" d="M55.0723 24.6376H73.9128V27.5361H55.0723V24.6376Z" fill="#52C1EF"/>
<path fill-rule="evenodd" clip-rule="evenodd" d="M55.0723 30.4347H85.507V33.3332H55.0723V30.4347Z" fill="#52C1EF"/>
<path fill-rule="evenodd" clip-rule="evenodd" d="M71.0146 37.6812H73.9132V40.5797H71.0146V37.6812Z" fill="#52C1EF"/>
<path fill-rule="evenodd" clip-rule="evenodd" d="M55.0723 37.6812H66.6665V40.5797H55.0723V37.6812Z" fill="#52C1EF"/>
<path fill-rule="evenodd" clip-rule="evenodd" d="M33.0819 50.7261C32.9291 50.711 32.789 50.8118 32.7559 50.9606C32.7095 51.1141 32.6268 51.2544 32.5146 51.3697C32.3967 51.4839 32.2487 51.5629 32.0876 51.5977C32.0197 51.6254 31.9614 51.672 31.9197 51.7319C31.8718 51.8191 31.8718 51.9244 31.9197 52.0116C31.9611 52.1008 32.0463 52.162 32.1446 52.1733C32.5277 52.1911 32.9189 51.7772 32.9189 51.7772C33.3835 51.2759 33.3313 51.0398 33.3313 51.0398C33.3403 50.8876 33.2332 50.7529 33.0819 50.7261V50.7261Z" fill="#52C1EF"/>
<path fill-rule="evenodd" clip-rule="evenodd" d="M51.5698 48.5778V50.7953C51.731 50.7915 51.8868 50.8533 52.0008 50.9663C52.1149 51.0793 52.1773 51.2337 52.1735 51.3935V54.3164C52.174 54.5171 52.0938 54.7097 51.9506 54.8516C51.8074 54.9935 51.613 55.073 51.4105 55.0725H47.0293C47.0583 54.8865 47.0773 54.6992 47.0863 54.5113C47.0283 51.4018 44.468 48.9112 41.3295 48.9112C38.1911 48.9112 35.6308 51.4018 35.5728 54.5113C35.5728 54.6328 35.5888 54.7452 35.6052 54.8599C35.6151 54.9291 35.6251 54.9991 35.6318 55.0725H23.4988C23.5051 55.0063 23.514 54.9411 23.523 54.8759L23.523 54.8758L23.523 54.8758C23.5394 54.7566 23.5558 54.6372 23.5558 54.5113C23.5558 52.4722 22.458 50.588 20.676 49.5684C18.8939 48.5489 16.6983 48.5489 14.9163 49.5684C13.1342 50.588 12.0364 52.4722 12.0364 54.5113C12.0453 54.6992 12.0643 54.8865 12.0934 55.0725H8.00717C7.805 55.0725 7.61113 54.9927 7.46836 54.8509C7.32558 54.709 7.24564 54.5167 7.24616 54.3164V51.565C7.24352 51.365 7.32198 51.1724 7.46393 51.0302C7.60589 50.8881 7.79947 50.8084 8.00127 50.8089L8.75049 44.7682C8.89267 43.6079 9.91866 42.7557 11.0965 42.8196L12.7404 42.9054L17.8374 38.3593C18.3273 37.9219 18.9636 37.6803 19.6229 37.6812H29.9546C32.2763 37.6807 34.5285 38.4666 36.3377 39.9084L42.1112 44.511L49.8727 46.4343C50.8669 46.6796 51.5659 47.5626 51.5698 48.5778ZM16.1928 43.0146L20.9555 43.2582L20.9595 40.0507H20.0215C19.6962 40.0502 19.3826 40.1705 19.1425 40.3879L16.1928 43.0146ZM34.8002 51.2961C34.7242 51.8252 34.4931 52.3205 34.1356 52.7206C33.5873 53.3344 32.7997 53.6859 31.9725 53.6859C31.1452 53.6859 30.3577 53.3344 29.8094 52.7206C29.4518 52.3205 29.2207 51.8252 29.1447 51.2961C29.0982 50.9719 29.1101 50.642 29.1801 50.3218C29.3005 49.8039 29.5216 49.3141 29.831 48.8799L30.1909 48.346C30.1909 48.346 30.8339 47.3892 30.9617 47.1456C31.1419 46.8188 31.2882 46.4747 31.3983 46.1187C31.4683 45.857 31.5092 45.5884 31.5202 45.3178C31.5237 45.2037 31.5738 45.0959 31.6591 45.0191C31.7444 44.9423 31.8575 44.9031 31.9725 44.9106C32.0876 44.9031 32.201 44.9422 32.2865 45.019C32.3721 45.0957 32.4227 45.2035 32.4267 45.3178C32.4377 45.5884 32.4786 45.857 32.5486 46.1187C32.6588 46.4747 32.805 46.8188 32.9852 47.1456C33.113 47.3892 33.756 48.346 33.756 48.346L34.1159 48.8799C34.4253 49.3141 34.6464 49.8039 34.7668 50.3218C34.8361 50.6421 34.8474 50.972 34.8002 51.2961ZM23.3594 40.0546V43.3789L37.7891 44.1018L35.0263 41.9019C33.526 40.7057 31.6582 40.0539 29.7326 40.0546H23.3594Z" fill="#52C1EF"/>
<path fill-rule="evenodd" clip-rule="evenodd" d="M36.2314 55.0706C36.2325 52.6693 38.1799 50.7236 40.5811 50.7246C41.7344 50.7246 42.8404 51.183 43.6555 51.9988C44.4706 52.8147 44.9281 53.921 44.9271 55.0743C44.9261 57.4755 42.9786 59.4213 40.5774 59.4203C38.1762 59.4192 36.2304 57.4718 36.2314 55.0706ZM39.2746 55.0781C39.2746 55.8001 39.8599 56.3854 40.5819 56.3854V56.3817C41.3025 56.3817 41.8872 55.7987 41.8892 55.0781C41.8892 54.3561 41.3039 53.7708 40.5819 53.7708C39.8599 53.7708 39.2746 54.3561 39.2746 55.0781Z" fill="#52C1EF"/>
<path fill-rule="evenodd" clip-rule="evenodd" d="M13.0439 55.0706C13.045 52.6693 14.9924 50.7236 17.3936 50.7246C18.5469 50.7246 19.6529 51.183 20.468 51.9988C21.2831 52.8147 21.7406 53.921 21.7396 55.0743C21.7386 57.4755 19.7911 59.4213 17.3899 59.4203C14.9887 59.4192 13.0429 57.4718 13.0439 55.0706ZM16.0868 55.0781C16.0868 55.8001 16.6721 56.3854 17.3941 56.3854V56.3817C18.1147 56.3817 18.6994 55.7987 18.7014 55.0781C18.7014 54.3561 18.1161 53.7708 17.3941 53.7708C16.6721 53.7708 16.0868 54.3561 16.0868 55.0781Z" fill="#52C1EF"/>
<path fill-rule="evenodd" clip-rule="evenodd" d="M204.12 60.5769L209.979 92.4512C209.992 92.5256 209.999 92.6002 210 92.6738C210 92.6895 210 92.705 209.999 92.7204C209.999 92.7286 209.998 92.7369 209.998 92.7451C209.997 92.795 209.994 92.8449 209.987 92.8941C209.984 92.9211 209.979 92.9479 209.974 92.9744C209.965 93.0209 209.954 93.0666 209.941 93.1117C209.936 93.129 209.931 93.1461 209.925 93.163C209.923 93.171 209.92 93.1789 209.917 93.1868C209.9 93.236 209.879 93.2834 209.856 93.3304C209.847 93.3489 209.84 93.368 209.831 93.3859C209.796 93.4499 209.758 93.5114 209.714 93.5699L209.71 93.5753L209.702 93.5836C209.699 93.5877 209.695 93.5918 209.691 93.5961C209.654 93.6441 209.613 93.6904 209.569 93.7337C209.562 93.7399 209.556 93.7458 209.549 93.7516L209.531 93.7674L209.511 93.785C209.503 93.7921 209.495 93.7992 209.487 93.8064C209.471 93.8212 209.456 93.836 209.438 93.8494C209.427 93.858 209.414 93.864 209.402 93.8725C209.369 93.897 209.333 93.9185 209.298 93.9399C209.262 93.9617 209.227 93.9827 209.19 94.001C209.177 94.0074 209.166 94.0159 209.153 94.0219C209.109 94.0425 209.064 94.0596 209.019 94.0752C209.014 94.0766 209.01 94.0787 209.006 94.0802C208.937 94.1034 208.867 94.1196 208.797 94.1321C208.781 94.1352 208.765 94.1377 208.748 94.14C208.677 94.1502 208.606 94.1573 208.534 94.1573H208.534H208.534C208.482 94.1573 208.43 94.1544 208.377 94.1488C208.37 94.148 208.363 94.1468 208.356 94.1455C208.349 94.1444 208.343 94.1433 208.337 94.1425C208.318 94.1399 208.3 94.1374 208.281 94.1345C208.262 94.1315 208.242 94.1281 208.223 94.124C208.211 94.1215 208.199 94.1182 208.187 94.1148L208.186 94.1146L208.186 94.1144L208.176 94.1118L208.165 94.1088L208.152 94.1055C208.137 94.1017 208.122 94.098 208.107 94.0939L208.088 94.0883L208.072 94.0833C208.062 94.0801 208.052 94.0765 208.043 94.0728L208.024 94.0653L208.002 94.0569C207.979 94.0481 207.956 94.0405 207.933 94.0305L184.267 83.5462L160.602 94.0307C160.547 94.0552 160.491 94.075 160.434 94.0924C160.432 94.093 160.43 94.0938 160.429 94.0945L160.429 94.0946C160.426 94.0955 160.424 94.0964 160.422 94.097L160.42 94.0974L160.418 94.0978C160.411 94.0998 160.404 94.1012 160.397 94.1028C160.391 94.1039 160.386 94.105 160.381 94.1064C160.335 94.1186 160.289 94.1284 160.243 94.1359C160.238 94.1368 160.233 94.1381 160.227 94.1394L160.227 94.1394C160.223 94.1404 160.218 94.1414 160.214 94.1422L160.21 94.1429C160.206 94.1435 160.202 94.1437 160.198 94.1438H160.198L160.194 94.144L160.188 94.1446C160.129 94.1521 160.07 94.1569 160.01 94.1573L160.006 94.1576L160.001 94.1579C159.998 94.1579 159.995 94.1576 159.992 94.1573C159.989 94.157 159.985 94.1567 159.982 94.1567C159.933 94.1562 159.883 94.1533 159.834 94.1477L159.825 94.1465L159.805 94.1438H159.805C159.796 94.1427 159.788 94.1411 159.779 94.1395L159.771 94.138L159.761 94.1361C159.73 94.1311 159.699 94.1257 159.669 94.1188C159.65 94.1145 159.632 94.1097 159.613 94.1047L159.603 94.1019L159.602 94.1017C159.592 94.0989 159.581 94.0961 159.571 94.093C159.56 94.0896 159.549 94.0861 159.538 94.0824L159.506 94.0714C159.484 94.0635 159.462 94.0552 159.441 94.0463L159.431 94.0427L159.42 94.0385C159.413 94.0361 159.406 94.0336 159.4 94.0307L159.392 94.0272L159.39 94.0265L135.734 83.5463L112.069 94.0309C111.876 94.1161 111.671 94.1579 111.468 94.1579C111.145 94.1579 110.826 94.0533 110.563 93.8501C110.134 93.5189 109.926 92.9802 110.024 92.4514L111.258 85.7369C111.403 84.9499 112.167 84.428 112.964 84.5702C113.762 84.713 114.291 85.4667 114.146 86.2536L113.41 90.262L134.339 80.9896L135.866 61.5268L116.87 71.4349L115.199 80.5254C115.055 81.3124 114.291 81.8353 113.493 81.6921C112.695 81.5495 112.166 80.7956 112.311 80.0087L117.88 49.7075C117.959 49.2808 118.227 48.9114 118.611 48.7006L138.385 37.8398L138.385 37.8397C138.386 37.8393 138.386 37.8389 138.387 37.8387C138.443 37.8081 138.5 37.7815 138.559 37.7585C138.572 37.7537 138.585 37.7498 138.597 37.7459C138.605 37.7434 138.613 37.741 138.621 37.7383C138.661 37.725 138.7 37.7117 138.74 37.7017C138.757 37.6974 138.774 37.6944 138.791 37.6914L138.8 37.6897L138.817 37.6866C138.853 37.6797 138.889 37.6726 138.925 37.6683C138.946 37.6659 138.966 37.6647 138.986 37.6636L139.006 37.6624C139.042 37.6602 139.078 37.6583 139.114 37.6587C139.141 37.6591 139.168 37.6608 139.195 37.6625C139.23 37.6649 139.266 37.6679 139.302 37.673C139.329 37.6766 139.355 37.6812 139.382 37.6864C139.417 37.6934 139.453 37.7017 139.488 37.7111C139.514 37.7182 139.54 37.7258 139.565 37.7342C139.6 37.7458 139.634 37.7589 139.668 37.773L139.674 37.7755C139.697 37.7851 139.72 37.7947 139.743 37.8057C139.748 37.8081 139.753 37.8102 139.758 37.8123L139.758 37.8123C139.765 37.8149 139.771 37.8176 139.777 37.8208L143.39 39.6791C140.847 35.0422 139.563 30.5522 139.563 26.2586C139.563 15.088 148.773 6 160.094 6C171.415 6 180.626 15.088 180.626 26.2586C180.626 30.511 179.366 34.9559 176.871 39.5454L180.224 37.8208L180.23 37.8182L180.236 37.8153L180.242 37.8129C180.247 37.8108 180.253 37.8086 180.258 37.8061L180.276 37.7975C180.286 37.793 180.296 37.7887 180.306 37.7845L180.33 37.7744L180.33 37.7744L180.33 37.7743L180.335 37.7724C180.368 37.7585 180.402 37.7456 180.436 37.7342C180.452 37.7289 180.469 37.7239 180.485 37.7191L180.514 37.7109C180.549 37.7015 180.585 37.6934 180.62 37.6864C180.646 37.6812 180.673 37.6766 180.699 37.673C180.735 37.6679 180.772 37.6647 180.808 37.6624L180.823 37.6615L180.823 37.6615C180.844 37.6602 180.866 37.6589 180.887 37.6587C180.924 37.6583 180.961 37.6602 180.998 37.6625L181.014 37.6635C181.034 37.6646 181.055 37.6657 181.075 37.6681C181.113 37.6726 181.151 37.6799 181.189 37.6872L181.211 37.6913L181.232 37.6951C181.242 37.6969 181.251 37.6989 181.261 37.7013C181.303 37.7119 181.344 37.7256 181.385 37.7398C181.393 37.7423 181.4 37.7446 181.408 37.7468L181.41 37.7476C181.421 37.7508 181.431 37.7541 181.442 37.7581C181.501 37.7811 181.559 37.8077 181.615 37.8385L181.616 37.8388L181.617 37.8395L181.617 37.8397L188.924 41.8531H188.924L198.395 47.0546H198.395L201.392 48.7006C201.775 48.9114 202.043 49.2808 202.122 49.7075L203.072 54.8749C203.216 55.6618 202.687 56.4156 201.889 56.5583C201.092 56.7007 200.328 56.1786 200.183 55.3916L199.357 50.8983L197.456 49.8536L184.611 52.6822L203.709 74.5706L201.232 61.0936C201.087 60.3067 201.616 59.5528 202.414 59.4102C203.211 59.2674 203.975 59.7899 204.12 60.5769ZM182.674 42.9087L184.179 42.5615L182.578 41.6821L182.674 42.9087ZM180.977 58.793L174.848 54.0706C174.424 53.7439 173.852 53.6722 173.359 53.884L161.475 58.9874V57.4005C162.363 56.6868 164.38 55.0045 166.798 52.59L180.04 46.8502L180.977 58.793ZM179.799 43.7906L179.612 41.4025L173.825 44.3787C173.114 45.3726 172.349 46.3718 171.527 47.3764L179.799 43.7906ZM140.39 41.4025L146.474 44.5317C147.375 45.7819 148.362 47.0411 149.437 48.3085C150.378 49.4166 151.315 50.4463 152.217 51.3889L139.744 49.6279L140.39 41.4025ZM117.536 67.8111L136.135 58.1107L136.506 53.3742L118.465 62.7557L118.442 62.8827L117.536 67.8111ZM136.774 49.9608L119.131 59.1357L120.645 50.8984L137.424 41.6823L137.003 47.0553L136.774 49.9608ZM138.668 63.3506L137.278 81.0549L156.006 89.3518L138.668 63.3506ZM158.533 75.4733L149.492 61.4133L158.533 62.4815V75.4733ZM146.77 58.1745L158.533 59.5641V57.2527C157.923 56.7569 156.933 55.9265 155.711 54.8081L139.517 52.5218L139.037 58.6362L158.533 87.8736V80.8793L145.356 60.3885C145.052 59.916 145.051 59.3136 145.354 58.8405C145.656 58.3672 146.207 58.1091 146.77 58.1745ZM160.095 54.7623C156.389 51.6779 142.499 39.2501 142.499 26.2587C142.499 16.6851 150.393 8.89644 160.095 8.89644C169.798 8.89644 177.692 16.6851 177.692 26.2587C177.692 39.2501 163.802 51.6781 160.095 54.7623ZM161.469 84.0436V90.4719L165.857 88.5278L161.469 84.0436ZM168.703 87.2667L161.469 79.8735V62.1485L173.729 56.8836L181.284 62.7041L182.724 81.055L168.703 87.2667ZM187.992 44.656L182.903 45.8302L183.231 50.0178L193.598 47.7351L191.601 46.6382L187.992 44.656ZM185.664 80.9896L184.518 66.3916L203.374 88.8357L185.664 80.9896ZM183.725 56.3036L184.124 61.3854L206.09 87.532L204.742 80.1948L183.709 56.0883L183.725 56.3036Z" fill="#52C1EF"/>
<path fill-rule="evenodd" clip-rule="evenodd" d="M159.999 16.5264C159.176 16.5264 158.509 17.1935 158.509 18.0166C158.509 18.8398 159.176 19.5069 159.999 19.5069C163.435 19.5069 166.229 22.3016 166.229 25.7369C166.229 29.172 163.435 31.9669 159.999 31.9669C156.564 31.9669 153.769 29.1722 153.769 25.7369C153.769 24.0935 154.404 22.543 155.555 21.3706C156.132 20.7836 156.124 19.8401 155.537 19.2634C154.95 18.6865 154.006 18.6946 153.429 19.282C151.727 21.015 150.789 23.3074 150.789 25.7369C150.789 30.8155 154.921 34.9474 160 34.9474C165.078 34.9474 169.21 30.8155 169.21 25.7369C169.21 20.6581 165.078 16.5264 159.999 16.5264Z" fill="#52C1EF"/>
<path fill-rule="evenodd" clip-rule="evenodd" d="M229.355 21.4919C229.355 24.1793 231.542 26.3652 234.231 26.3652C235.055 26.3652 235.724 27.0331 235.724 27.8571C235.724 28.6812 235.055 29.349 234.231 29.349C231.542 29.349 229.355 31.5352 229.355 34.2224C229.355 35.0465 228.686 35.7143 227.862 35.7143C227.037 35.7143 226.369 35.0465 226.369 34.2224C226.369 31.5352 224.181 29.349 221.493 29.349C220.668 29.349 220 28.6812 220 27.8571C220 27.0331 220.668 26.3652 221.493 26.3652C224.181 26.3652 226.369 24.1791 226.369 21.4919C226.369 20.6678 227.037 20 227.862 20C228.686 20 229.355 20.6678 229.355 21.4919ZM226.097 27.8571C226.775 28.3479 227.371 28.944 227.862 29.6208C228.353 28.9442 228.95 28.3479 229.627 27.8571C228.95 27.3664 228.353 26.7702 227.862 26.0934C227.371 26.77 226.775 27.3664 226.097 27.8571Z" fill="#52C1EF"/>
<path fill-rule="evenodd" clip-rule="evenodd" d="M272.211 1.466C272.211 4.96946 275.063 7.81932 278.568 7.81932C279.379 7.81932 280.036 8.47584 280.036 9.28571C280.036 10.0956 279.379 10.7519 278.569 10.7519C275.063 10.7519 272.211 13.602 272.211 17.1052C272.211 17.9151 271.555 18.5714 270.744 18.5714C269.934 18.5714 269.277 17.9151 269.277 17.1052C269.277 13.602 266.425 10.7519 262.92 10.7519C262.11 10.7519 261.453 10.0956 261.453 9.28571C261.453 8.47584 262.11 7.81952 262.92 7.81952C266.425 7.81952 269.277 4.96946 269.277 1.4662C269.277 0.656325 269.934 0 270.744 0C271.555 0 272.211 0.656325 272.211 1.466ZM267.926 9.2855C269.056 10.0103 270.019 10.9731 270.744 12.1016C271.47 10.9731 272.433 10.0103 273.562 9.2855C272.433 8.5607 271.47 7.59787 270.744 6.46939C270.019 7.59787 269.056 8.5607 267.926 9.2855Z" fill="#52C1EF"/>
<path fill-rule="evenodd" clip-rule="evenodd" d="M296.998 34.8653L302.821 50.9161C302.983 51.3619 302.912 51.8562 302.631 52.2421C302.351 52.6277 301.895 52.8572 301.41 52.8572H241.506C240.492 52.8572 239.757 51.8485 240.095 50.9161L245.918 34.8651C246.353 33.6641 247.525 32.8572 248.835 32.8572H294.081C295.39 32.8572 296.563 33.6641 296.998 34.8653ZM248.741 35.8343L243.622 49.9443H299.294L294.176 35.8345C294.162 35.7969 294.122 35.7696 294.082 35.7696H248.835C248.794 35.7696 248.754 35.7969 248.741 35.8343Z" fill="#52C1EF"/>
<path fill-rule="evenodd" clip-rule="evenodd" d="M288.612 75C288.612 71.3952 292.693 68.5714 297.904 68.5714C303.114 68.5714 307.195 71.3952 307.195 75C307.195 78.6047 303.114 81.4286 297.904 81.4286C292.693 81.4286 288.612 78.6047 288.612 75ZM291.546 74.9999C291.546 76.5895 294.265 78.3672 297.903 78.3672C301.542 78.3672 304.26 76.5895 304.26 74.9999C304.26 73.4104 301.542 71.6327 297.903 71.6327C294.264 71.6327 291.546 73.4104 291.546 74.9999Z" fill="#52C1EF"/>
<path fill-rule="evenodd" clip-rule="evenodd" d="M234.294 75C234.294 71.3952 238.375 68.5714 243.585 68.5714C248.795 68.5714 252.876 71.3952 252.876 75C252.876 78.6047 248.795 81.4286 243.585 81.4286C238.375 81.4286 234.294 78.6047 234.294 75ZM237.228 74.9999C237.228 76.5895 239.947 78.3672 243.585 78.3672C247.223 78.3672 249.942 76.5895 249.942 74.9999C249.942 73.4104 247.223 71.6327 243.585 71.6327C239.946 71.6327 237.228 73.4104 237.228 74.9999Z" fill="#52C1EF"/>
<path fill-rule="evenodd" clip-rule="evenodd" d="M309.303 47.3487H317.158C317.972 47.3487 318.631 48.0008 318.63 48.8059V55.0232C318.63 55.8281 317.971 56.4804 317.158 56.4804H309.023L314.044 63.435C314.989 64.7439 315.488 66.2866 315.488 67.8956V86.1088C315.488 88.6325 314.25 90.8753 312.344 92.2747L312.344 92.2813L312.345 92.2941L312.345 92.2956C312.346 92.3056 312.347 92.3157 312.347 92.3259V96.9887C312.347 98.6491 310.981 100 309.303 100H299.877C298.199 100 296.834 98.6493 296.834 96.9887V93.7831H243.226V96.9887C243.226 98.6491 241.861 100 240.183 100H230.757C229.079 100 227.713 98.6493 227.713 96.9887V92.3259C227.713 92.3157 227.714 92.3057 227.715 92.2956C227.715 92.2887 227.716 92.2817 227.716 92.2747C225.81 90.8753 224.572 88.6325 224.572 86.1088V67.8956C224.572 66.2868 225.071 64.7441 226.016 63.435L231.037 56.4804H222.902C222.089 56.4804 221.43 55.8281 221.43 55.0232V48.8059C221.43 48.001 222.089 47.3487 222.902 47.3487H230.757C231.433 47.3487 232.022 47.8036 232.186 48.4525L233.221 52.547L240.456 32.2632C241.549 29.2007 244.488 27.1429 247.77 27.1429H292.29C295.573 27.1429 298.512 29.2007 299.604 32.263L306.84 52.5468L307.875 48.4525C308.039 47.8038 308.628 47.3487 309.303 47.3487ZM224.376 50.2629V53.5657H230.442L229.608 50.2629H224.376ZM240.281 96.9888C240.281 97.0423 240.237 97.0859 240.183 97.0859H230.757C230.703 97.0859 230.659 97.0423 230.659 96.9888V93.7831H232.328H240.281V96.9888ZM309.304 97.0859C309.358 97.0859 309.402 97.0423 309.402 96.9888V93.7831H307.733H299.78V96.9888C299.78 97.0423 299.824 97.0859 299.878 97.0859H309.304ZM307.732 90.8687H232.328C230.189 90.8687 228.372 89.4799 227.748 87.5659H312.312C311.688 89.4799 309.871 90.8687 307.732 90.8687ZM282.696 78.4344V75.1316H257.365V78.4344H282.696ZM257.596 72.2172C258.22 70.3031 260.036 68.9144 262.176 68.9144H277.885C280.024 68.9144 281.841 70.3031 282.465 72.2172H257.596ZM282.696 84.6515V81.3487H257.365V84.6515H282.696ZM311.647 65.1287C312.233 65.9406 312.543 66.8973 312.543 67.8953V84.6515H285.641V73.6743C285.641 69.4427 282.161 66.0001 277.885 66.0001H262.175C257.899 66.0001 254.419 69.4429 254.419 73.6743V84.6515H227.517V67.8953C227.517 66.8973 227.827 65.9406 228.413 65.1287L234.657 56.4801H288.881C289.694 56.4801 290.354 55.8278 290.354 55.0229C290.354 54.218 289.694 53.5657 288.881 53.5657H235.98L243.233 33.2329C243.911 31.3335 245.734 30.0571 247.77 30.0571H292.29C294.326 30.0571 296.149 31.3333 296.827 33.2329L304.08 53.5657H295.165C294.351 53.5657 293.692 54.218 293.692 55.0229C293.692 55.8278 294.351 56.4801 295.165 56.4801H305.403L311.647 65.1287ZM309.619 53.5657H315.686V50.2629H310.453L309.619 53.5657Z" fill="#52C1EF"/>
<path fill-rule="evenodd" clip-rule="evenodd" d="M247.057 64.2858H237.255C236.409 64.2858 235.724 64.9252 235.724 65.7143C235.724 66.5034 236.409 67.1429 237.255 67.1429H247.057C247.903 67.1429 248.588 66.5034 248.588 65.7143C248.588 64.9252 247.903 64.2858 247.057 64.2858Z" fill="#52C1EF"/>
<path fill-rule="evenodd" clip-rule="evenodd" d="M302.804 64.2858H293.002C292.156 64.2858 291.471 64.9252 291.471 65.7143C291.471 66.5034 292.156 67.1429 293.002 67.1429H302.804C303.65 67.1429 304.336 66.5034 304.336 65.7143C304.336 64.9252 303.65 64.2858 302.804 64.2858Z" fill="#52C1EF"/>
</svg>
