<svg width="89" height="89" viewBox="0 0 89 89" fill="none" xmlns="http://www.w3.org/2000/svg">
<path d="M88.5 22.8899C88.5 22.3899 87.7 20.8899 84.5 18.8899" stroke="#357560"/>
<path d="M1 23.3899C1 22.0565 2 19.0899 6 17.8899" stroke="#357560"/>
<path d="M35 2.88988L6 17.8899" stroke="#357560"/>
<path d="M1 54.8899V42.8899V24.3899V23.3899" stroke="#357560"/>
<path d="M37.5 8.88988C40.5 7.72322 46.6 6.08988 51 8.88988" stroke="#357560"/>
<path d="M19.5 27.3899C17.5 26.5565 14.7 24.8899 19.5 24.8899C24.3 24.8899 46.5 24.2232 57 23.8899C58.1667 23.5565 59.8 22.5899 57 21.3899C54.2 20.1899 30.8333 19.8899 19.5 19.8899C17.6667 19.8899 15.1 19.3899 19.5 17.3899C23.9 15.3899 33.3333 10.8899 37.5 8.88988" stroke="#357560"/>
<path d="M55 34.8899L78 23.3899L51 8.88988" stroke="#357560"/>
<path d="M19.5 27.3899L34 34.3899C37.8333 37.0565 47 41.2899 55 34.8899" stroke="#357560"/>
<path d="M74 65.8899L51.5 77.3899C50.3333 77.8899 47.9 78.7899 47.5 78.3899" stroke="#357560"/>
<path d="M63 36.3899L72 32.3899C74 31.5565 77.2 30.6899 74 33.8899C70.8 37.0899 61 55.2232 56.5 63.8899C56 65.8899 55.8 68.8899 59 64.8899C62.2 60.8899 74.6667 43.5565 80.5 35.3899C81.3333 34.0565 82.9 32.1899 82.5 35.3899C82.1 38.5899 82 50.0565 82 55.3899C81 58.2232 77.9 64.2899 73.5 65.8899" stroke="#357560"/>
<path d="M47.5 78.3899V51.8899C47.8333 49.0565 51.5 41.9899 63.5 36.3899" stroke="#357560"/>
<path d="M13.5 71.8899L42.5 86.8899C43.5 87.3899 46 88.0899 48 86.8899C50 85.6899 70.1667 75.0565 80 69.8899C82.6667 68.0565 88.1 62.3899 88.5 54.3899" stroke="#357560"/>
<path d="M41 59.3899V71.3899C41.1667 73.2232 41 75.7899 39 71.3899C37 66.9899 24.1667 50.5565 18 42.8899C16.5 41.5565 14 40.0899 16 44.8899C18 49.6899 28.8333 66.5565 34 74.3899C35.1667 75.7232 36.3 77.5899 31.5 74.3899C26.7 71.1899 17.8333 67.0565 14 65.3899C11.5 63.5565 6.5 58.7899 6.5 54.3899" stroke="#357560"/>
<path d="M6.5 54.3899V30.3899C6.5 28.7232 7.2 26.1899 10 29.3899" stroke="#357560"/>
<path d="M10 29.3899L35 41.8899C37.1667 43.3899 41.4 49.0899 41 59.8899" stroke="#357560"/>
<path d="M35 2.88987C38.1667 1.72321 45.8 -0.110126 51 1.88987" stroke="#357560"/>
<path d="M1 54.8899C1.66667 59.3899 5.1 69.0899 13.5 71.8899" stroke="#357560"/>
<path d="M88.5 54.3899V22.8899M51 1.88988L84.5 18.8899" stroke="#357560"/>
<path d="M43.5328 49.3809C43.7037 50.2779 43.795 51.271 43.795 52.1821C43.795 53.3392 43.9538 56.7988 43.7901 55.6534C43.7048 55.0558 43.565 54.5066 43.528 53.8959C43.5105 53.608 43.4795 53.2436 43.4017 52.9638C43.1458 52.0423 42.8207 51.1328 42.6104 50.2014C42.356 49.0746 42.226 47.9523 41.9161 46.8369C41.6929 46.0332 41.3591 45.2822 40.9597 44.5406C40.6264 43.9215 40.2384 43.3454 39.9499 42.7006C39.879 42.542 39.3425 40.999 39.5324 40.9917C40.0578 40.9715 40.5617 41.1594 41.086 41.1664C41.8677 41.177 42.6309 41.265 43.4066 41.3606C44.4061 41.4839 45.4781 41.516 46.4846 41.516C47.7074 41.516 48.878 41.2986 50.0869 41.2538C50.3203 41.2452 50.9061 41.1669 51.0967 41.0596C51.2769 40.9583 50.7136 40.8923 50.5093 40.8606C50.0777 40.7936 49.6499 40.739 49.213 40.7295C48.5293 40.7146 47.8835 40.6111 47.2031 40.7101C46.8256 40.765 46.4072 40.7911 46.0282 40.8169C45.3418 40.8637 44.0169 41.0874 43.4454 41.516" stroke="#357560" stroke-width="5" stroke-linecap="round"/>
<path d="M45.2806 42.0403C47.229 42.5056 49.1241 41.8509 50.8297 40.948C51.4735 40.6071 52.1002 40.215 52.5337 39.6129C52.6681 39.4263 53.3976 38.8403 52.6648 39.0303C52.1868 39.1542 51.6836 39.3184 51.2278 39.5061C50.8741 39.6517 50.4698 39.9921 50.0869 40.0304C49.6444 40.0746 49.4595 40.4444 49.1645 40.6858C48.7748 41.0046 48.5153 41.4596 48.1207 41.7684C47.6728 42.1189 47.2889 42.4525 46.9409 42.9142C46.4771 43.5297 46.2317 44.2817 45.7661 44.8804C45.5224 45.1937 45.5484 45.8779 45.4214 46.2592C45.249 46.7763 45.651 46.3604 45.902 46.2349C46.9957 45.6881 47.819 45.1433 48.6693 44.293C48.8269 44.1353 48.9707 43.9516 49.1256 43.7881C49.3329 43.5693 49.5712 43.4299 49.781 43.2201C50.1308 42.8703 49.6697 43.0936 49.4752 43.2395C48.818 43.7324 48.2564 44.4382 47.64 44.9921C46.6542 45.8779 45.8192 47.1934 45.4359 48.439C45.1263 49.4453 44.6702 50.3341 44.4941 51.3908" stroke="#357560" stroke-width="5" stroke-linecap="round"/>
<path d="M45.5427 45.798C46.3496 46.3224 46.3791 47.736 46.0185 48.5555C45.7793 49.0991 45.4781 49.7092 45.4553 50.3227C45.4432 50.6501 45.4224 51.1721 45.3 51.4782C45.0183 52.1824 44.9417 53.0965 44.8485 53.8425C44.7422 54.6926 44.5815 55.5749 44.5815 56.4107C44.5815 57.1192 44.4929 57.8627 44.3387 58.5566C44.3228 58.6284 44.3519 59.1586 44.2756 59.1586C44.17 59.1586 44.0496 58.194 44.0134 58.0857C43.8966 57.7351 43.6202 57.207 43.6202 56.8477C43.6202 56.4617 43.5365 57.0609 43.5328 57.1584C43.5174 57.5668 43.3648 57.9608 43.2901 58.3624C43.2173 58.7535 43.1833 59.2096 43.1833 59.6052C43.1833 60.0287 43.2554 60.437 43.2706 60.8481C43.3005 61.6529 44.0537 60.7865 44.2513 60.4597C44.5837 59.9101 44.7958 59.3808 44.8388 58.7362C44.8874 58.0065 44.7755 59.1459 44.7611 59.3334C44.7277 59.7674 44.819 60.2233 44.7125 60.649C44.4464 61.7135 44.7095 63.0327 44.6688 64.13C44.6208 65.4272 44.2319 66.7292 44.2319 68.0381C44.2319 68.2987 44.2319 68.5592 44.2319 68.8198C44.2319 68.9052 44.2463 68.0337 44.2756 67.8342C44.3539 67.3019 44.3084 66.6706 44.4504 66.1593C44.549 65.8041 44.5533 65.4251 44.6494 65.0621C44.6586 65.0275 44.7523 65.7705 44.7562 65.9845C44.768 66.6304 44.6399 67.3917 44.8242 68.0139C44.9271 68.3612 44.8436 68.8582 44.8436 69.213C44.8436 69.2869 44.8592 69.7624 44.7854 69.6014C44.4181 68.8001 44.3199 67.8529 44.1882 66.9895C44.0583 66.1378 44.1037 65.2483 43.795 64.431C43.5606 63.8106 43.7076 65.0834 43.7076 65.2854C43.7076 65.7741 43.7076 66.2629 43.7076 66.7516C43.7076 68.0865 43.4454 69.3602 43.4454 70.7035" stroke="#357560" stroke-width="5" stroke-linecap="round"/>
<path d="M42.9211 61.0034C42.9211 61.7663 43.0959 62.5386 43.0959 63.2755" stroke="#357560" stroke-width="5" stroke-linecap="round"/>
<path d="M43.6202 60.7413C43.8255 61.4777 43.9917 62.2445 43.9698 63.0133C43.9565 63.4788 43.7639 63.9489 43.7125 64.4115C43.5169 66.1713 43.7159 68.0206 43.6202 69.7907C43.5932 70.29 43.2892 70.7468 43.2707 71.2472C43.2541 71.6955 43.1559 72.3165 43.0522 72.7522C42.8288 73.6905 42.8337 74.7628 42.8337 75.7282C42.8337 76.2121 42.7923 76.7413 42.926 77.209C43.0698 77.7126 43.7225 76.5224 43.795 76.2963C43.9852 75.7033 44.2319 75.1389 44.2319 74.5097C44.2319 74.0744 44.2361 73.6596 44.3387 73.2377C44.4418 72.8141 44.615 72.3578 44.6689 71.9269C44.7173 71.5393 44.8582 72.6852 44.9747 73.0581C45.1665 73.6718 45.1105 74.9731 44.8873 75.5535C44.6752 76.1051 44.8436 77.0301 44.8436 77.6265C44.8436 78.2648 45.1932 78.8798 45.1932 79.4859C45.1932 79.911 45.9995 80.4137 46.2613 80.7336C46.835 81.4348 46.6761 82.6143 46.9215 83.4426C47.0103 83.7424 46.9343 84.1396 47.0477 84.4233C47.2499 84.9287 46.685 84.7729 46.3341 84.7729C45.7035 84.7729 45.1658 84.5981 44.5378 84.5981C44.3456 84.5981 44.4603 84.7534 44.2319 84.7049C44.0122 84.6583 43.8693 84.6869 43.6688 84.5593C43.4067 84.3925 43.2877 83.8738 43.2707 83.5494C43.2409 82.9835 43.1683 82.354 43.0522 81.7968C42.8651 80.8986 42.9211 79.8408 42.9211 78.9179" stroke="#357560" stroke-width="5" stroke-linecap="round"/>
<path d="M42.3277 76.0113C41.916 76.0897 41.5341 76.2599 41.1159 76.2599C40.773 76.2599 40.4547 76.1312 40.1181 76.07C39.6872 75.9916 39.2771 75.7801 38.8613 75.6522C38.4977 75.5403 38.3061 75.2755 37.9775 75.0929C37.8398 75.0164 37.7254 74.8056 37.5735 74.7718C37.5257 74.7612 37.46 74.7013 37.4181 74.7062C37.2368 74.7275 37.2185 75.3619 37.2041 75.4796C37.1494 75.9245 37.0976 76.4765 37.2317 76.9124C37.2956 77.1201 37.356 77.3167 37.356 77.5339C37.356 78.1885 37.5024 78.8806 37.6011 79.5226C37.6804 80.038 38.2408 80.2891 38.5023 80.6999C38.8987 81.3229 39.7592 80.9091 40.1664 81.4181C40.3994 81.7094 40.5731 81.9717 40.5876 82.3641C40.5951 82.5662 40.5839 82.7826 40.6636 82.9717C40.7201 83.1061 40.7386 83.2361 40.7775 83.3722C40.7872 83.4062 40.9164 83.4855 40.9467 83.4551C41.0236 83.3782 40.6754 83.2613 40.6463 83.248C39.8765 82.8951 39.2179 82.5411 38.6265 81.9498C38.3284 81.6516 37.917 81.414 37.5424 81.2178C37.1266 81 36.6851 80.8217 36.3754 80.4997C35.9906 80.0994 35.9616 79.676 35.8161 79.167C35.6885 78.7201 35.9888 78.2008 35.9888 77.7514" stroke="#357560" stroke-width="5" stroke-linecap="round"/>
<path d="M39.1582 79.0565C39.4202 79.1651 39.904 79.4689 39.904 79.8023" stroke="#357560" stroke-width="5" stroke-linecap="round"/>
<path d="M37.4803 75.8249C37.1383 75.4621 36.921 75.0495 36.921 74.5508C36.921 74.2797 36.6165 73.9991 36.4549 73.8016C36.2533 73.5553 36.3039 73.0804 36.1614 72.7797C36.0297 72.5017 36.1277 72.1877 36.0026 71.9096C35.8737 71.6233 35.7045 71.4552 35.5537 71.1915C35.4194 70.9565 35.2214 70.6801 35.1187 70.4491C34.993 70.1663 34.753 69.9483 34.6077 69.6723C34.468 69.4068 34.2786 68.6929 34.0001 68.5537" stroke="#357560" stroke-width="5" stroke-linecap="round"/>
<path d="M37.1074 73.6497C37.0546 73.3264 36.9753 72.9233 36.7967 72.6554" stroke="#357560" stroke-width="5" stroke-linecap="round"/>
<path d="M35.3673 70.9152C34.5126 70.5609 34.5176 69.7059 34.2624 68.9404C34.1631 68.6424 33.9563 68.2814 33.7653 68.0427C33.689 67.9474 33.6702 67.7351 33.6133 67.6215C33.5313 67.4574 33.3523 67.3956 33.2543 67.2486" stroke="#357560" stroke-width="5" stroke-linecap="round"/>
<path d="M34.6452 70.8203C34.5686 71.0212 34.5568 71.1854 34.5568 71.3949" stroke="#357560" stroke-width="5" stroke-linecap="round"/>
<path d="M34.2032 70.29C33.7633 70.0217 33.6438 69.5359 33.3634 69.131C33.1128 68.7689 32.8744 68.4724 32.7103 68.0458C32.4366 67.3341 31.8097 66.7342 31.6422 65.9808C31.5704 65.6575 31.3761 65.3771 31.1733 65.119C31.0448 64.9554 30.8986 64.7835 30.7558 64.6328C30.6663 64.5383 30.4988 64.3749 30.4465 64.2571C30.385 64.1187 30.2224 64.0021 30.1371 63.8716C30.0211 63.6942 29.9144 63.5193 29.7835 63.3511C29.5168 63.0081 29.181 62.6904 28.9438 62.3346" stroke="#357560" stroke-width="5" stroke-linecap="round"/>
<path d="M32.1702 66.3123C32.0144 66.0507 31.9327 65.7295 31.7184 65.5069C31.5977 65.3816 31.495 65.246 31.3746 65.119C31.2558 64.9936 31.086 64.8627 30.9965 64.7163C30.7588 64.3274 30.4395 64.005 30.2009 63.6261C30.0286 63.3524 29.8769 63.0628 29.7172 62.779C29.4581 62.3184 29.1165 61.9093 28.6786 61.5931C28.3692 61.3696 28.1548 61.0643 27.8831 60.7926C27.6873 60.5969 27.5436 60.3598 27.3527 60.1689" stroke="#357560" stroke-width="5" stroke-linecap="round"/>
<path d="M29.8277 63.0859C29.9037 62.9815 30.1011 62.624 30.3041 62.7864C30.4 62.8631 30.6046 62.8276 30.6675 62.9533" stroke="#357560" stroke-width="5" stroke-linecap="round"/>
<path d="M28.7228 60.3457C28.5677 60.1472 28.3789 59.9743 28.271 59.7466C28.1632 59.5189 28.0193 59.2445 27.8389 59.064C27.639 58.8642 27.4471 58.5897 27.2103 58.4355C26.9638 58.275 26.6329 57.9843 26.4688 57.7381" stroke="#357560" stroke-width="5" stroke-linecap="round"/>
<path d="M27.0433 58.4453C26.6742 58.087 26.1958 57.6343 25.9924 57.1538C25.8843 56.8981 25.6091 56.6772 25.386 56.5227C25.1629 56.3683 24.9805 56.1615 24.7893 55.9703" stroke="#357560" stroke-width="5" stroke-linecap="round"/>
<path d="M25.0987 56.368C24.9459 55.9187 24.6756 55.4486 24.4112 55.052C24.2744 54.8468 24.1025 54.6647 23.9275 54.4897C23.7808 54.343 23.6456 54.0725 23.4634 53.9814" stroke="#357560" stroke-width="5" stroke-linecap="round"/>
<path d="M22.8888 53.7162C22.8108 53.3522 22.6937 52.993 22.5696 52.6457C22.4469 52.302 22.3835 51.9761 22.1817 51.6734C21.7997 51.1004 21.3129 50.6426 20.9 50.0921" stroke="#357560" stroke-width="4" stroke-linecap="round"/>
<path d="M20.679 50.2689C20.5991 50.0592 20.5556 49.8175 20.4335 49.6256C20.3563 49.5044 20.2064 49.2552 20.1928 49.1198C20.1786 48.9776 20.0489 48.881 20.0185 48.7441C19.9904 48.6175 19.9257 48.4621 19.8614 48.3464C19.7417 48.131 19.7088 47.9391 19.5299 47.7497C19.3815 47.5926 19.2691 47.398 19.1542 47.2193C18.9817 46.9509 18.7797 46.7468 18.646 46.4459C18.5101 46.1401 18.3058 45.9083 18.1156 45.6381C17.7962 45.1842 17.435 44.7842 17.1433 44.3466" stroke="#357560" stroke-width="3" stroke-linecap="round"/>
<path d="M20.7674 48.943C20.6322 48.8374 20.5308 48.7349 20.458 48.5894" stroke="#357560" stroke-width="3" stroke-linecap="round"/>
<path d="M16.7013 43.993C16.4412 43.6354 16.5613 43.0611 16.1268 42.8439" stroke="#357560" stroke-width="2" stroke-linecap="round"/>
<path d="M39.6777 47.2962C39.4415 47.2386 39.3339 46.9286 39.2113 46.7359C38.9549 46.333 38.8666 45.8059 38.6946 45.3637C38.4888 44.8345 38.2382 44.3099 37.9565 43.817C37.8237 43.5846 37.6618 43.3536 37.5472 43.1141C37.4404 42.8907 37.3289 42.6468 37.2016 42.4347" stroke="#357560" stroke-width="2" stroke-linecap="round"/>
<path d="M55.523 36.3377C55.5042 36.1986 55.4872 36.0729 55.4872 35.9333C55.4872 35.9311 55.4821 35.8049 55.4553 35.8397C55.4092 35.8996 55.4101 36.073 55.3935 36.1445C55.3583 36.297 55.3317 36.4481 55.3079 36.6027C55.2823 36.7689 55.278 36.9372 55.2451 37.1017C55.2274 37.1905 55.2164 37.2876 55.1754 37.3696C55.1367 37.4471 55.1595 37.1969 55.1445 37.1116C55.1284 37.0194 55.1045 36.9041 55.0479 36.8258C55.0157 36.7811 54.9097 36.7884 54.8637 36.7869C54.6905 36.7813 54.4568 36.8185 54.2979 36.7232C54.2587 36.6996 54.1896 36.6854 54.2302 36.6246C54.3004 36.5193 54.4806 36.4571 54.5888 36.4015C54.7021 36.3432 54.8158 36.2834 54.9085 36.1943C54.9825 36.1231 55.0189 36.0358 55.0758 35.9533C55.1298 35.875 55.1965 35.7679 55.2631 35.7013C55.3088 35.6555 55.3578 35.563 55.3218 35.4951C55.3081 35.4691 55.1889 35.3517 55.29 35.3517" stroke="#357560" stroke-width="2" stroke-linecap="round"/>
<path d="M61.5363 36.4373C61.5665 36.3027 61.7626 36.3155 61.877 36.3155C62.005 36.3155 62.1232 36.2916 62.2464 36.262C62.2947 36.2505 62.3351 36.22 62.3833 36.2071C62.5649 36.1587 62.7548 36.1123 62.9445 36.1123C63.0018 36.1123 63.0459 36.0933 63.0994 36.0747C63.2051 36.0381 63.3254 36.0259 63.4349 36.001C63.6639 35.949 63.8639 35.7721 64.0578 35.652C64.2309 35.5447 64.3881 35.4155 64.5663 35.3165C64.7538 35.2123 64.9092 35.0568 65.0433 34.8907C65.1814 34.7195 65.2879 34.5194 65.3953 34.328C65.441 34.2466 65.4891 34.1645 65.5307 34.0813" stroke="#357560" stroke-width="2" stroke-linecap="round"/>
<path d="M71.6732 67.9541C71.6548 67.8258 71.7243 67.8519 71.7614 67.7675C71.7926 67.6966 71.8374 67.6524 71.8904 67.5995C72.01 67.4798 72.1614 67.3554 72.3146 67.2788C72.6045 67.1338 72.8303 66.8948 73.0968 66.7171C73.2247 66.6318 73.3192 66.5183 73.4701 66.4728C73.7497 66.3885 74.0297 66.2743 74.3151 66.2132" stroke="#357560" stroke-width="2" stroke-linecap="round"/>
<path d="M83.5309 20.0597C83.5909 20.0201 83.6472 19.9817 83.6968 19.9321C83.7348 19.8941 83.7651 19.8435 83.8163 19.8208C83.8848 19.7903 83.9386 19.7376 83.9719 19.6748C84.0093 19.604 84.0559 19.5395 84.095 19.4691C84.1191 19.4257 84.1684 19.3164 84.2211 19.3164" stroke="#357560" stroke-width="2" stroke-linecap="round"/>
<path d="M51.8194 7.10955C51.9175 7.29622 51.9633 7.56546 51.8414 7.75508C51.7724 7.86232 51.7048 7.9577 51.614 8.04851C51.5713 8.09116 51.5411 8.14119 51.5047 8.18789C51.4783 8.22187 51.4809 8.2694 51.4452 8.29792C51.3917 8.34077 51.3555 8.42765 51.3352 8.48865" stroke="#357560" stroke-width="2" stroke-linecap="round"/>
<path d="M50.1175 4.42471C50.1612 4.331 50.238 4.26256 50.287 4.17204C50.3514 4.05316 50.3787 3.92557 50.4044 3.79466C50.4385 3.6208 50.5208 3.47254 50.543 3.29502C50.5625 3.13877 50.5893 2.99138 50.6342 2.84021C50.6609 2.75068 50.6881 2.65213 50.7263 2.56798C50.7437 2.52983 50.7476 2.47046 50.7891 2.4555C50.8387 2.43764 50.8364 2.3874 50.8364 2.34139" stroke="#357560" stroke-width="2" stroke-linecap="round"/>
<path d="M36.3824 6.51827C36.5072 6.72736 36.4771 6.89882 36.5249 7.11833C36.5398 7.18698 36.5557 7.27143 36.5577 7.34107C36.5605 7.43532 36.661 7.52596 36.694 7.61859C36.7836 7.86941 36.9246 8.0898 36.974 8.33671" stroke="#357560" stroke-width="2" stroke-linecap="round"/>
<path d="M35.5499 5.26947C35.5911 5.02717 35.5718 4.77453 35.5718 4.52944C35.5718 4.50347 35.5645 4.42663 35.5718 4.45154C35.6341 4.66344 35.7243 4.86494 35.7812 5.07959C35.8747 5.43286 36.108 6.50434 36.0258 6.14826C35.9768 5.93605 35.8888 5.73035 35.8177 5.52507C35.711 5.21701 35.6344 4.90317 35.545 4.59029C35.4512 4.26192 35.4355 3.87705 35.2821 3.57031C35.2634 3.5329 35.2554 3.47141 35.231 3.44008C35.203 3.40413 35.1493 3.39482 35.1336 3.3634" stroke="#357560" stroke-width="2" stroke-linecap="round"/>
<path d="M11.7033 27.7276C11.6672 27.9482 11.5516 28.1329 11.4325 28.319C11.3897 28.3858 11.3543 28.4726 11.3051 28.5327C11.1993 28.662 11.0078 28.7319 10.8497 28.7583C10.7525 28.7744 10.7213 28.9271 10.6544 28.9903C10.5886 29.0523 10.5314 29.0874 10.4407 29.0874" stroke="#357560" stroke-width="2" stroke-linecap="round"/>
<path d="M6.71095 19.8991C6.70563 19.5638 6.58678 19.2933 6.46705 18.9904C6.42045 18.8726 6.39663 18.7777 6.26416 18.7336" stroke="#357560" stroke-width="2" stroke-linecap="round"/>
<path d="M2.63986 54.5001C2.46253 54.5041 2.29593 54.5725 2.12315 54.5996C2.0375 54.613 1.94666 54.6206 1.86384 54.6465C1.75631 54.6801 1.59665 54.6895 1.48587 54.6895" stroke="#357560" stroke-width="2" stroke-linecap="round"/>
<path d="M14.4894 69.9929C14.4442 70.2186 14.3382 70.416 14.2836 70.6345C14.2704 70.6873 14.2507 70.7865 14.2179 70.8288C14.1308 70.9407 14.0454 71.1783 13.8978 71.2275" stroke="#357560" stroke-width="2" stroke-linecap="round"/>
<path d="M44.796 41.4956C43.7532 41.4614 42.8916 40.8758 41.856 40.8758C41.078 40.8758 40.2371 40.7845 39.4841 40.6476C39.1657 40.5897 38.7137 40.5658 38.4037 40.5658C38.1364 40.5658 37.9216 40.4475 37.6633 40.4152C37.4263 40.3855 37.1676 40.3414 36.9875 40.1612C36.9153 40.0891 36.8075 39.8232 36.9746 39.7953C37.2827 39.744 37.5675 39.8685 37.8613 39.8685C38.3599 39.8685 38.9961 39.9596 39.4497 40.1612C39.6594 40.2544 40.1047 40.129 40.2848 40.2731C40.7865 40.6745 39.0219 39.9643 38.4596 39.6533C37.6174 39.1874 36.6725 38.9619 35.7908 38.6288C35.1705 38.3944 34.5519 38.295 33.9657 37.9486C33.714 37.7999 33.1472 37.5687 33.0186 37.3116" stroke="#357560" stroke-width="5" stroke-linecap="round"/>
<path d="M42.9477 42.3765C42.9477 41.8104 42.794 41.2854 43.3599 41.0025" stroke="#357560" stroke-width="5" stroke-linecap="round"/>
<path d="M36.8821 40.7507C36.5737 40.6228 36.0199 40.3626 35.905 40.0179" stroke="#357560" stroke-width="5" stroke-linecap="round"/>
<path d="M37.5661 40.5064C37.0539 39.9127 36.2594 39.462 35.563 39.1004C35.3168 38.9726 35.108 38.8164 34.8328 38.7476C34.4267 38.646 34.0984 38.1726 33.7824 37.9197C33.4574 37.6597 33.1545 37.4413 32.8975 37.1109C32.8197 37.0108 32.8126 36.8756 32.7401 36.7824C32.7074 36.7404 32.8249 36.7349 32.8432 36.7471C32.9202 36.7984 32.6685 36.8078 32.5827 36.8421" stroke="#357560" stroke-width="5" stroke-linecap="round"/>
<path d="M34.564 37.9965C34.5372 37.8523 34.557 37.552 34.4084 37.4777" stroke="#357560" stroke-width="5" stroke-linecap="round"/>
<path d="M35.3423 39.3456C34.8671 39.2583 34.7063 38.9847 34.4343 38.622C34.0844 38.1555 33.4827 37.9129 33.0075 37.6074C32.8382 37.4986 32.6614 37.4375 32.4771 37.3624C32.1868 37.2441 31.9337 37.0023 31.6555 36.855C31.1112 36.5669 30.5641 36.1953 29.9923 35.973C29.5216 35.7899 29.0192 35.6268 28.528 35.5089C28.1703 35.4231 28.4332 35.3908 28.6606 35.4541C28.9072 35.5228 29.1281 35.6333 29.3783 35.6645C29.5328 35.6839 29.76 35.7283 29.9058 35.777C30.2178 35.8809 30.4615 36.1389 30.7648 36.2439C30.8789 36.2834 31.0228 36.3183 31.1424 36.3333C31.3114 36.3544 31.4822 36.4482 31.2664 36.2324C30.4502 35.4162 29.32 35.2175 28.2829 34.8545C27.3301 34.5211 26.4034 34.0376 25.4321 33.7678C25.1871 33.6998 24.8926 33.4965 24.6538 33.4825C24.5079 33.4739 24.2784 33.3946 24.1638 33.3008C23.8196 33.0193 24.3238 33.0548 24.55 33.0674C24.8461 33.0838 24.9395 33.4569 25.1208 33.6381C25.3398 33.8571 25.6345 33.9837 25.8472 34.2089C26.0375 34.4104 26.1374 34.4577 26.366 34.5721" stroke="#357560" stroke-width="5" stroke-linecap="round"/>
<path d="M28.3896 34.9353C28.9687 34.9353 29.2857 35.62 29.4245 36.1056C29.4736 36.2777 29.8248 36.3063 29.9721 36.3391C30.1238 36.3728 30.0975 36.4918 30.2835 36.4918C30.4095 36.4918 30.5356 36.5437 30.6726 36.5437" stroke="#357560" stroke-width="5" stroke-linecap="round"/>
<path d="M28.1821 34.8834C27.632 34.5129 27.0214 34.1538 26.5448 33.69C26.3724 33.5223 26.2506 33.33 26.0028 33.2749C25.7179 33.2116 25.5049 32.9818 25.2245 32.9117" stroke="#357560" stroke-width="5" stroke-linecap="round"/>
<path d="M25.2764 34.1051C23.7864 33.3753 22.3608 32.6057 20.8258 31.9778C20.5581 31.8682 20.2968 31.6719 20.0475 31.5223C19.6487 31.2831 19.2169 31.1046 18.7936 30.9141C18.1784 30.6373 17.5835 30.3051 17.0035 29.9427C15.5464 29.032 13.9371 28.4593 12.4491 27.6193C12.0838 27.4131 11.6967 27.2519 11.3306 27.0486C11.0776 26.908 10.738 26.8877 10.5149 26.7142C10.4017 26.6262 10.2713 26.5735 10.1517 26.4778C9.99584 26.3532 9.88386 26.1782 9.71063 26.0627" stroke="#357560" stroke-width="5" stroke-linecap="round"/>
<path d="M23.668 32.6004C23.3754 32.3649 23.1748 32.1072 22.9156 31.848C22.6418 31.5742 22.298 31.3852 21.9961 31.1476C21.4213 30.6951 20.6327 30.3423 19.9293 30.1387C19.4144 29.9896 18.9086 29.8812 18.4505 29.5881C17.9833 29.2891 17.4601 29.0815 16.9516 28.8646C16.4098 28.6334 15.7949 28.4663 15.3028 28.1382C14.6652 27.7132 14.0623 27.2761 13.3772 26.9218C13.0214 26.7377 12.674 26.4516 12.3568 26.2069C11.8116 25.7863 11.4832 25.1913 11.0597 24.6618" stroke="#357560" stroke-width="5" stroke-linecap="round"/>
<path d="M8.82856 24.4024C8.89257 24.4263 9.65772 24.79 9.39354 24.5552C9.15753 24.3454 8.90458 24.127 8.70173 23.8835C8.35872 23.4719 8.02208 22.8211 8.26935 22.2751C8.40884 21.967 8.3953 21.8937 8.03298 21.9407C7.5297 22.0059 6.99856 22.2232 6.49369 22.2232C6.12221 22.2232 6.28615 21.1567 6.28615 20.8482C6.28615 20.5267 5.41219 20.801 5.19654 20.9145C4.90002 21.0706 4.60346 21.258 4.3433 21.4708C3.55721 22.114 3.32102 23.005 3.13263 23.947C2.94654 24.8774 3.06921 25.7915 3.06921 26.7257C3.06921 26.9492 3.08925 27.1663 3.14993 27.383C3.15958 27.4174 3.22003 27.6633 3.26235 27.6568C3.45442 27.6273 3.71627 27.3338 3.84174 27.2014C4.55562 26.4478 5.02297 25.5195 5.84223 24.8492C5.96498 24.7488 5.93286 25.9782 5.92295 26.1665C5.9106 26.401 5.60768 26.5501 5.45309 26.6854C5.18708 26.9181 4.88652 27.1222 4.63732 27.3714C4.29362 27.7151 4.26246 28.2939 3.8475 28.6052" stroke="#357560" stroke-width="5" stroke-linecap="round"/>
<path d="M5.87106 24.0911C6.19275 23.2064 6.7997 22.4296 7.3527 21.6755C7.63519 21.2903 7.77821 20.8361 8.02433 20.4533C8.2551 20.0943 8.23996 19.8265 8.71615 19.6836C9.09984 19.5685 9.36189 19.2455 9.62992 18.9774C9.92737 18.68 10.1864 18.4644 10.5812 18.3029C11.0508 18.1108 11.5418 17.9869 11.9821 17.7206C12.5465 17.3793 13.1868 17.0865 13.8096 16.8789" stroke="#357560" stroke-width="5" stroke-linecap="round"/>
<path d="M10.437 21.2892C10.8493 21.6936 11.3292 22.1721 11.8351 22.4567C12.2216 22.6741 12.6439 23.0611 13.0948 22.7305C14.0183 22.0533 14.0483 20.8639 13.8615 19.8364C13.8278 19.6508 13.5573 18.7987 13.7174 18.6546C13.7574 18.6185 14.259 18.7285 14.3544 18.7497C14.5351 18.7899 14.4271 19.5225 14.3919 19.6808C14.3117 20.0417 14.3804 20.5028 14.3804 20.8684C14.3804 21.3963 14.2206 21.9443 14.1613 22.4711C14.0876 23.1262 14.0279 23.7908 14.0719 24.4514C14.1005 24.88 14.2094 25.3117 14.2247 25.7399C14.2539 26.5579 14.3191 24.1021 14.4582 23.2955C14.5679 22.6593 14.6398 21.9987 14.6398 21.3527C14.6398 20.2162 14.5559 19.0257 14.7551 17.9051C14.8315 17.4756 14.9074 17.0481 15.0549 16.6426C15.143 16.4002 15.2802 15.962 15.5219 15.8412" stroke="#357560" stroke-width="5" stroke-linecap="round"/>
<path d="M12.4087 20.1996C12.5492 19.5102 12.9538 18.8416 13.3542 18.2683C13.682 17.7989 14.0451 17.3272 14.4842 16.9567C15.0895 16.446 15.6923 15.9382 16.2771 15.4002C16.5805 15.121 16.8764 14.7418 17.2284 14.5268C17.5262 14.3447 17.9274 14.2791 18.2603 14.1808C18.8441 14.0086 19.4391 13.6751 19.9841 13.4026" stroke="#357560" stroke-width="5" stroke-linecap="round"/>
<path d="M17.4417 14.6478C17.7877 14.4305 18.1165 14.1911 18.4275 13.9329C18.895 13.5448 19.6151 13.2496 20.1657 13.0163C20.8078 12.7442 21.4582 12.4957 22.0999 12.2207C22.6399 11.9893 23.1236 11.6539 23.6651 11.4309C24.2465 11.1915 24.8212 10.8951 25.3773 10.6007C25.8629 10.3436 26.3948 10.1733 26.8561 9.8743C27.4771 9.47179 28.1825 9.16784 28.8306 8.80776C29.5434 8.41179 30.0972 7.80121 30.8282 7.43566" stroke="#357560" stroke-width="5" stroke-linecap="round"/>
<path d="M28.649 9.82242C29.0975 9.16297 29.7798 8.78702 30.3959 8.3062C31.2645 7.62821 32.1097 6.89303 33.0334 6.29706C33.6354 5.9087 34.3372 5.76714 34.9791 5.464C35.6209 5.16094 35.3466 6.18007 35.1377 6.44118C34.8523 6.79794 34.4235 7.06191 34.0481 7.30595C33.5348 7.63961 33.0943 8.04081 32.5405 8.31773C32.0246 8.57568 31.5246 8.82745 31.0099 9.09314C30.3734 9.42164 29.6783 9.66149 29.0641 10.03" stroke="#357560" stroke-width="5" stroke-linecap="round"/>
<path d="M31.9698 8.21395C32.7527 7.73657 33.757 7.48755 34.6678 7.48755" stroke="#357560" stroke-width="5" stroke-linecap="round"/>
<path d="M28.2858 10.03C28.2016 10.0564 27.4721 10.2006 27.5854 10.2635C27.7176 10.3369 27.79 10.3413 27.9486 10.3413C28.2132 10.3413 27.6489 10.5787 27.5565 10.6295C27.2374 10.8051 26.9493 11.0355 26.6255 11.1974C25.9965 11.5119 25.339 11.7808 24.7057 12.0939C23.8736 12.5052 23.0027 12.8493 22.1633 13.2469C21.5622 13.5316 20.9435 13.7861 20.3444 14.0483C19.5845 14.3807 18.8406 14.754 18.0931 15.1148C17.5306 15.3863 16.9791 15.7066 16.4558 16.0487C15.9959 16.3495 15.4963 16.5413 15.1068 16.9308" stroke="#357560" stroke-width="5" stroke-linecap="round"/>
<path d="M18.196 29.6145C18.3041 29.4489 18.3993 29.2498 18.5366 29.1125" stroke="#357560" stroke-width="5" stroke-linecap="round"/>
<path d="M3.48501 26.1257C3.48501 27.1548 3.31021 28.1953 3.16553 29.2081C3.10765 29.6132 3.30841 29.8855 3.393 30.2662C3.42879 30.4272 3.439 30.5611 3.439 30.7262C3.439 30.8085 3.41911 31.2289 3.49523 30.992C3.58868 30.7013 3.71503 29.7972 3.71503 30.1026C3.71503 30.5794 3.57586 31.0793 3.52079 31.5543C3.46077 32.072 3.48501 32.5995 3.48501 33.121C3.48501 33.3914 3.45758 33.6819 3.48756 33.9517C3.52135 34.2558 3.48501 34.5207 3.48501 34.8207C3.48501 35.0951 3.68547 34.3095 3.77126 34.0488C3.8839 33.7066 3.94506 33.4952 3.94506 33.1415C3.94506 32.4646 4.06147 31.7929 4.15208 31.1224C4.16741 31.009 4.33524 30.3021 4.23898 30.762C4.10723 31.3915 3.97573 32.0156 3.86327 32.6482C3.78691 33.0777 3.85305 33.5657 3.85305 34.0028C3.85305 34.2567 3.85305 34.5106 3.85305 34.7644C3.85305 35.0301 3.78003 35.2906 3.8096 35.5567C3.92978 36.6384 3.89905 37.7314 3.89905 38.8231C3.89905 39.3809 3.7768 39.9737 3.8556 40.5253C3.88761 40.7493 3.9614 41.0495 3.8965 41.2767C3.84805 41.4462 3.80704 40.9316 3.80704 40.7553" stroke="#357560" stroke-width="5" stroke-linecap="round"/>
<path d="M3.623 39.2831C3.623 40.0323 3.65359 40.8049 3.49521 41.5374C3.3824 42.0591 3.48498 42.6367 3.48498 43.1578C3.48498 43.7665 3.51044 44.3821 3.4492 44.9878C3.36751 45.7956 3.20895 46.6154 3.20895 47.426C3.20895 47.6908 3.24776 47.9488 3.25496 48.2081C3.25983 48.3835 3.27689 48.5395 3.29841 48.7116C3.3132 48.8299 3.33447 48.7071 3.35719 48.6477C3.43746 48.4378 3.53296 48.234 3.61277 48.0241C3.8578 47.3798 3.94503 46.6834 3.94503 45.9999C3.94503 45.082 3.80702 47.8321 3.80702 48.7499C3.80702 49.2134 3.80702 49.6769 3.80702 50.1403C3.80702 50.571 3.71501 50.9995 3.71501 51.4284" stroke="#357560" stroke-width="5" stroke-linecap="round"/>
<path d="M3.94504 47.196C3.94504 46.4273 4.22033 45.6628 4.38208 44.9187C4.51421 44.311 4.30215 43.5944 4.4971 43.0095" stroke="#357560" stroke-width="5" stroke-linecap="round"/>
<path d="M3.71501 50.5083C3.80505 51.1949 3.71501 51.8547 3.71501 52.5326C3.71501 52.7738 3.66901 53.0027 3.66901 53.2456C3.66901 53.4631 3.75024 53.6619 3.76102 53.8667C3.78966 54.4109 3.94504 54.9299 3.94504 55.4769C3.94504 55.6271 3.92204 56.0684 4.0166 56.19C4.10955 56.3095 4.24988 56.5183 4.26707 56.673C4.29185 56.896 4.35223 57.0841 4.35908 57.3171C4.36382 57.4783 4.44067 57.6935 4.49709 57.8487C4.56479 58.0348 4.70293 58.234 4.72968 58.4212C4.75479 58.597 4.84971 58.858 4.92136 59.0193C5.07076 59.3554 5.1698 59.7166 5.39675 60.0084C5.52831 60.1775 5.63501 60.3806 5.73923 60.563C5.83381 60.7285 5.97811 60.8772 6.06126 61.0435" stroke="#357560" stroke-width="5" stroke-linecap="round"/>
<path d="M5.78525 61.6875C5.95243 61.8091 6.04781 61.8757 6.14306 62.0556C6.18188 62.1289 6.25097 62.2809 6.3143 62.3316C6.4297 62.4239 6.47376 62.6021 6.57755 62.7099C6.73901 62.8775 6.95227 63.0255 7.09383 63.2057C7.64032 63.9012 8.27843 64.5348 8.84713 65.2069C9.25236 65.6858 9.80802 65.9864 10.2477 66.4261C10.6671 66.8454 11.13 67.2163 11.5461 67.6324C12.1619 68.2483 12.9817 68.7328 13.7901 69.0023" stroke="#357560" stroke-width="5" stroke-linecap="round"/>
<path d="M11.7659 67.7142C11.5631 67.6833 10.8519 67.6361 10.7078 67.4279C10.5015 67.13 10.2761 66.782 9.98191 66.5641C9.63052 66.3038 9.38415 66.0683 9.1896 65.69C9.06705 65.4517 9.02222 65.1872 8.87012 64.959C8.74384 64.7696 8.5888 64.604 8.47652 64.4044C8.26578 64.0297 7.80983 63.8222 7.55642 63.4843C7.33998 63.1957 7.01669 62.9231 6.75134 62.6767C6.5247 62.4662 6.20026 62.2319 6.08427 61.9355C5.87593 61.403 6.13742 61.5495 6.47531 61.5495" stroke="#357560" stroke-width="5" stroke-linecap="round"/>
<path d="M7.39542 62.3776C7.75343 62.5959 8.26951 62.9138 8.26951 63.3897" stroke="#357560" stroke-width="5" stroke-linecap="round"/>
<path d="M8.63754 64.2178C9.07831 64.782 9.41847 65.4479 9.81067 66.058C9.92969 66.2432 10.2806 66.7481 10.5237 66.7481C10.949 66.7481 11.2069 66.8175 11.4898 67.1161C11.7773 67.4196 12.0766 67.7084 12.3409 68.0337C12.5775 68.3248 13.0198 68.376 13.3505 68.4963C13.749 68.6412 14.0894 68.7702 14.4444 69.0023C14.6882 69.1617 14.9441 69.2796 15.2162 69.3704" stroke="#357560" stroke-width="5" stroke-linecap="round"/>
<path d="M14.3882 69.0023C14.1733 68.9322 13.9503 68.8753 13.7441 68.7825C13.5537 68.6969 13.5054 68.5564 13.3761 68.4043C13.2627 68.2709 13.2849 68.0575 13.1358 67.9442C12.9962 67.8381 12.8577 67.7019 12.732 67.5762C12.367 67.2112 11.9331 66.9085 11.5614 66.5436C11.2261 66.2144 10.828 65.9933 10.442 65.736C10.3271 65.6594 10.2494 65.598 10.1097 65.598" stroke="#357560" stroke-width="5" stroke-linecap="round"/>
<path d="M13.5601 67.7602C13.9129 67.9366 14.2612 68.1287 14.5364 68.4145C14.822 68.711 15.0952 69.0662 15.4258 69.3141C15.9298 69.6921 16.4564 70.0481 17.0565 70.2445C17.3628 70.3447 17.656 70.4731 17.9561 70.5869C18.3643 70.7418 18.7247 70.9869 19.1292 71.1416C19.4367 71.2591 19.7305 71.4102 20.0366 71.5326C20.05 71.538 20.2564 71.6312 20.2564 71.6144C20.2564 71.5415 20.0257 71.3444 19.9727 71.3051C19.5401 70.9847 18.8897 71.109 18.4801 70.7505C17.9105 70.2522 17.3774 69.4624 16.5504 69.4624" stroke="#357560" stroke-width="5" stroke-linecap="round"/>
<path d="M15.9523 70.3825C16.3693 70.3825 16.7714 70.5978 17.1485 70.7863C17.4417 70.9329 17.7229 71.1461 17.9791 71.3511C18.3524 71.6498 18.7828 71.852 19.1982 72.0847C19.5744 72.2953 19.9496 72.4954 20.3126 72.7287C20.5101 72.8557 20.8498 72.9894 21.0793 72.8642C21.599 72.5807 21.4967 71.8472 20.9669 71.6706" stroke="#357560" stroke-width="5" stroke-linecap="round"/>
<path d="M37.7586 79.9975C37.1358 79.9231 36.6215 79.6285 36.0335 79.4199C35.481 79.2239 34.95 78.9754 34.3901 78.7912C33.5326 78.5089 32.6596 78.2989 31.8291 77.9298C30.9881 77.5561 30.2112 77.1029 29.4215 76.6391C29.1489 76.4791 28.9017 76.2833 28.6292 76.1229C28.2851 75.9202 27.8949 75.7682 27.5711 75.535C27.0438 75.1554 26.5226 74.7648 25.9635 74.4335C25.6224 74.2313 25.3087 73.9928 24.9693 73.7868C24.635 73.584 24.2963 73.4095 23.9418 73.245C23.751 73.1565 23.5625 73.0102 23.3566 72.9588C23.309 72.9469 23.1898 72.8719 23.1546 72.8719C23.098 72.8719 23.2327 72.9546 23.2773 72.9894C23.4359 73.1133 23.5981 73.2337 23.7527 73.3626C23.922 73.5037 24.0521 73.5697 24.2613 73.6514C24.5258 73.7546 24.7587 73.9279 25.0255 74.0169C25.2533 74.0928 25.4848 74.2123 25.6951 74.3287C25.9479 74.4685 26.2449 74.528 26.5104 74.6405C27.2656 74.9605 28.0465 75.2002 28.8056 75.5095C29.2158 75.6766 29.5914 75.9032 29.994 76.0871C30.2537 76.2057 30.6479 76.3372 30.8579 76.5471" stroke="#357560" stroke-width="5" stroke-linecap="round"/>
<path d="M23.5892 72.6827C23.4461 72.6594 23.235 72.6393 23.1061 72.5677C23.0158 72.5176 22.9026 72.4385 22.8071 72.4067" stroke="#357560" stroke-width="5" stroke-linecap="round"/>
<path d="M22.7151 72.9128C22.8181 73.3937 23.103 73.5353 23.4281 73.8354C23.5864 73.9815 23.8275 74.0536 24.0134 74.1651C24.3815 74.386 24.7218 74.6309 25.0766 74.8705C25.7704 75.339 26.489 75.7018 27.2414 76.0641C28.0267 76.4422 28.7904 76.868 29.5698 77.2577C30.7645 77.855 31.922 78.5539 33.1122 79.149C33.3726 79.2792 33.5528 79.5332 33.8022 79.6653C33.9511 79.744 34.0743 79.9515 34.2623 79.9515" stroke="#357560" stroke-width="5" stroke-linecap="round"/>
<path d="M13.4077 23.0354C14.0759 23.0239 14.69 22.7283 15.3486 22.7048C15.7172 22.6917 16.0909 22.5632 16.4384 22.4538C16.7149 22.3667 17.0964 22.3209 17.3476 22.1813C17.4533 22.1226 17.723 22.1852 17.8435 22.212C18.0834 22.2653 18.3329 22.3191 18.5874 22.3191C19.2469 22.3191 19.9074 22.3742 20.5711 22.3742C21.9067 22.3742 23.2484 22.4293 24.5936 22.4293C25.85 22.4293 27.0881 22.3742 28.3406 22.3742" stroke="#357560" stroke-width="5" stroke-linecap="round"/>
<path d="M24.814 22.3191C26.1287 22.0958 27.4612 22.1538 28.7936 22.1538C29.3219 22.1538 29.9454 22.0624 30.4651 22.1569C30.981 22.2507 31.5112 22.1745 32.0324 22.2517C33.0617 22.4042 34.1387 22.158 35.1733 22.2762C36.0618 22.3778 36.9318 22.264 37.8182 22.264" stroke="#357560" stroke-width="5" stroke-linecap="round"/>
<path d="M37.9284 22.3742C38.5805 22.3742 39.2325 22.3742 39.8846 22.3742C40.3111 22.3742 41.0297 22.2442 41.3999 22.4293" stroke="#357560" stroke-width="5" stroke-linecap="round"/>
<path d="M40.4632 21.8232C41.0654 21.8232 41.6264 21.9885 42.2387 21.9885C42.5469 21.9885 42.855 21.9885 43.1632 21.9885C43.4904 21.9885 43.8046 22.0987 44.1244 22.0987C45.6461 22.0987 47.1946 22.1538 48.7286 22.1538" stroke="#357560" stroke-width="4" stroke-linecap="round"/>
<path d="M46.9102 22.4844C47.8145 22.4844 48.7121 22.3742 49.6225 22.3742C50.3306 22.3742 51.0388 22.3742 51.747 22.3742C52.4914 22.3742 53.2327 22.4293 53.9633 22.4293C54.5678 22.4293 55.168 22.5946 55.7817 22.5946" stroke="#357560" stroke-width="3" stroke-linecap="round"/>
<path d="M55.3409 22.5946C55.7639 22.5946 56.214 22.6497 56.6083 22.6497" stroke="#357560" stroke-width="3" stroke-linecap="round"/>
<path d="M47.1993 82.8341C47.9472 82.6499 49.0741 82.5051 49.5875 81.849C49.6319 81.7922 49.8566 81.6077 49.8131 81.5206C49.7403 81.3751 49.4126 81.3188 49.2757 81.2818C48.8648 81.1709 48.4184 81.1381 48.0053 81.0463C47.9548 81.0351 47.8071 81.0493 47.9556 81.043C48.4076 81.0238 48.8886 80.9178 49.3321 80.8307C49.764 80.7459 50.4421 80.5846 50.7683 80.2801C51.5611 79.5402 52.5834 79.3982 53.5744 78.9666C53.871 78.8375 53.9592 78.6682 53.9459 79.086C53.9252 79.7383 53.413 80.429 53.0537 80.9501C52.6124 81.5899 51.8973 81.5471 51.2261 81.8225C50.3953 82.1633 49.7136 82.7378 48.8711 83.0132C48.648 83.0862 48.4607 83.1475 48.2442 83.1957C48.0557 83.2375 47.7752 83.2662 47.6173 83.3715" stroke="#357560" stroke-width="5" stroke-linecap="round"/>
<path d="M49.1098 82.4162C49.0703 82.6317 48.9273 82.9268 48.9938 83.1592C49.0228 83.2607 49.1937 83.4312 49.289 83.4312" stroke="#357560" stroke-width="5" stroke-linecap="round"/>
<path d="M50.2442 82.7744C50.8044 82.5877 51.3897 82.3411 51.9027 82.0447C52.3099 81.8094 52.7796 81.6468 53.1697 81.4012C53.7526 81.0342 54.3789 80.7819 54.9741 80.446C55.697 80.0379 56.3784 79.5569 57.1069 79.1623C57.8042 78.7846 58.4407 78.2621 59.17 77.9649C59.6336 77.776 60.058 77.4724 60.51 77.2551C60.9332 77.0516 61.334 76.8672 61.7373 76.6282C62.3318 76.2759 63.0219 76.0008 63.6478 75.6995C64.3942 75.3401 65.1339 74.9381 65.9132 74.6547C66.5403 74.4266 67.1157 74.0451 67.6911 73.7127C67.8485 73.6217 68.5131 73.169 68.4872 73.1753C67.6777 73.3722 66.8849 73.7107 66.0658 73.8652C65.3802 73.9946 64.7271 74.19 64.0657 74.4158C62.2319 75.042 60.4175 75.7233 58.6061 76.4159C57.9893 76.6518 57.3089 76.8627 56.7221 77.1655C56.4669 77.2973 55.817 77.4798 55.6773 77.7593" stroke="#357560" stroke-width="5" stroke-linecap="round"/>
<path d="M63.618 73.6994C65.1572 72.4465 67.1194 71.8536 68.9316 71.1122C70.7302 70.3764 72.4793 69.5068 74.242 68.6842C74.3524 68.6327 74.9914 68.2889 74.8224 68.5615C74.5125 69.0614 74.1274 69.5156 73.635 69.8186C73.3008 70.0242 72.9283 70.2085 72.5736 70.3858C72.1705 70.5874 71.8554 70.8903 71.4856 71.1321C71.2944 71.2572 71.0762 71.4004 70.9052 71.55C70.7888 71.6519 70.6434 71.8486 70.4839 71.8486" stroke="#357560" stroke-width="5" stroke-linecap="round"/>
<path d="M75.2603 68.0275C75.767 67.8174 76.0045 67.4851 76.4245 67.1585C76.8336 66.8403 77.2073 66.47 77.6186 66.1501C78.5373 65.4356 79.4127 64.7109 80.2455 63.8781C80.6827 63.441 80.9553 62.7951 81.2904 62.2826C81.6112 61.792 81.8689 61.3174 82.1395 60.8033C82.3953 60.3173 82.8488 59.746 82.9654 59.2211C83.0826 58.6937 83.2228 58.1031 83.4099 57.5793C83.5286 57.2467 83.5642 56.9175 83.8278 56.6539C84.0154 56.4662 84.59 56.0479 84.7532 56.4151C85.0034 56.978 85.3652 57.5834 85.138 58.2327C84.7875 59.234 83.9893 59.9872 83.5127 60.9227C83.2915 61.357 83.1059 61.8026 82.8891 62.2362C82.7639 62.4866 82.5799 62.8483 82.4115 63.0588C82.1927 63.3323 82.5881 62.8479 82.6503 62.7735C82.8551 62.5286 83.0549 62.2922 83.2639 62.0571C83.4223 61.8789 83.608 61.6783 83.7979 61.533C83.9163 61.4425 84.1938 61.1177 84.1529 61.261C84.0327 61.6817 83.5648 62.0393 83.2938 62.3689C83.0409 62.6764 82.7469 62.9546 82.4845 63.2545C82.1287 63.6611 81.8133 64.1545 81.4363 64.5315C80.3431 65.6247 79.2531 66.7505 78.0995 67.7887C77.667 68.178 77.0095 68.3031 76.5273 68.6245C76.175 68.8594 75.8128 69.0383 75.4394 69.2349C75.0019 69.4651 74.5728 69.7146 74.1259 69.938C73.6861 70.1579 73.2127 70.5012 72.7527 70.6545" stroke="#357560" stroke-width="5" stroke-linecap="round"/>
<path d="M79.6783 65.8185C79.9735 66.1962 80.3579 66.4198 80.6336 66.8334" stroke="#357560" stroke-width="5" stroke-linecap="round"/>
<path d="M83.9174 57.5196C84.5038 56.1914 84.8511 54.7925 85.2176 53.4C85.2534 53.264 85.2948 52.9347 85.4431 53.2242C85.7029 53.7313 85.7386 54.3559 85.7815 54.9125C85.7991 55.1421 85.877 55.824 85.8146 55.6024C85.4795 54.4109 85.5294 53.0222 85.5294 51.788C85.5294 50.1796 85.8876 48.5599 85.8876 46.952C85.8876 46.5092 85.9473 46.0721 85.9473 45.6252C85.9473 44.9862 85.817 44.3816 85.7085 43.7578C85.6845 43.62 85.6788 43.2751 85.4962 43.2536C85.3497 43.2364 85.1447 43.1209 85.0517 43.2835C84.72 43.864 84.7886 44.5624 84.6637 45.1874C84.4782 46.1148 84.4547 47.1355 84.4547 48.083C84.4547 48.8211 84.4538 49.5898 84.5177 50.3252C84.585 51.0995 84.5741 51.8759 84.5741 52.657C84.5741 53.2311 84.6136 53.7786 84.9025 54.2922C85.2326 54.8791 85.6488 55.3833 85.6488 56.0867" stroke="#357560" stroke-width="5" stroke-linecap="round"/>
<path d="M85.7681 52.8627C85.7681 52.9663 85.6868 53.5791 85.8577 53.5791C86.0159 53.5791 85.9144 53.8515 85.9937 53.9506C86.0713 54.0476 86.0418 54.2197 86.1264 54.3254C86.2215 54.4444 86.4359 54.4371 86.4846 54.5344" stroke="#357560" stroke-width="5" stroke-linecap="round"/>
<path d="M84.9323 45.3399C84.9323 44.5682 84.9323 43.7965 84.9323 43.0248C84.9323 42.7624 84.9623 42.3598 85.065 42.1159C85.1484 41.9177 85.1335 41.6742 85.1844 41.4592C85.2358 41.2423 85.2327 40.9092 85.3204 40.7162C85.5479 40.2156 85.4696 39.4532 85.4696 38.9218C85.4696 38.001 85.4698 37.0877 85.4066 36.172C85.339 35.192 85.2308 34.2423 85.2308 33.2565C85.2308 33.1572 85.2246 32.6413 85.2341 32.7656C85.2816 33.382 85.4099 33.9712 85.4099 34.5932C85.4099 35.1723 85.3729 35.7451 85.3502 36.3114C85.3441 36.4648 85.2663 36.6893 85.2441 36.862C85.1906 37.2777 85.2187 37.705 85.1579 38.1157C85.0659 38.7365 85.1431 39.3377 85.1711 39.9533C85.1858 40.2767 85.2459 40.6498 85.3038 40.9683C85.3507 41.2264 85.3102 41.506 85.3801 41.7577C85.4488 42.005 85.4099 42.2949 85.5028 42.5339C85.5253 42.5918 85.6705 43.0155 85.7051 42.7727C85.7633 42.3652 85.8279 41.9326 85.8279 41.5189C85.8279 40.2293 85.7085 38.9543 85.7085 37.668C85.7085 36.5037 85.7085 35.3395 85.7085 34.1753C85.7085 33.6777 85.7085 33.1802 85.7085 32.6827C85.7085 32.164 85.7477 31.7762 85.3038 31.3957C84.7955 30.96 83.6593 30.7916 83.0085 30.9048C82.3816 31.0138 81.7013 31.2278 81.0648 31.2498C80.7992 31.2589 80.6475 31.3221 80.4678 31.5019C80.3966 31.573 80.2573 31.602 80.156 31.608C80.0306 31.6154 79.9094 31.7633 79.7944 31.8136C79.2185 32.0656 78.53 32.1067 77.9768 32.414C77.5286 32.663 77.304 33.1924 77.0812 33.6379C76.7847 34.231 76.6418 34.9015 76.3482 35.4888C76.2649 35.6554 76.1989 35.7959 76.0961 35.9531C75.9348 36.1998 76.1818 35.6405 76.2155 35.575C76.3929 35.2302 76.6705 34.9585 76.9651 34.706C77.4311 34.3066 77.8617 33.8298 78.4246 33.5484C78.899 33.3112 79.3283 32.6405 79.6186 32.205" stroke="#357560" stroke-width="5" stroke-linecap="round"/>
<path d="M84.5144 40.7427C84.3947 40.7894 84.2784 40.8272 84.1561 40.8621" stroke="#357560" stroke-width="5" stroke-linecap="round"/>
<path d="M80.6336 29.9363C80.6843 29.5818 80.7759 29.2398 80.8393 28.8882C80.8996 28.5536 80.881 28.1373 81.0184 27.8234C81.2892 27.2043 80.8324 29.1873 80.5275 29.7903C80.1984 30.4411 79.3814 30.6873 78.9321 31.2531C78.5631 31.7177 78.2705 32.3335 78.0663 32.895C77.9504 33.2139 77.7817 33.4918 77.6617 33.8038C77.4241 34.4214 76.7629 34.8715 76.5771 35.5219C76.4238 36.0582 75.8644 36.523 75.5588 36.9814" stroke="#357560" stroke-width="5" stroke-linecap="round"/>
<path d="M78.7231 33.3394C78.5594 34.0271 78.0764 34.4708 77.7678 35.0708C77.5261 35.5409 77.1524 35.936 76.9021 36.381C76.7163 36.7114 76.3424 36.9778 76.1094 37.2799C75.9581 37.476 75.7828 37.7525 75.5886 37.9035C75.2657 38.1547 74.9681 38.6403 74.7826 39.0113" stroke="#357560" stroke-width="5" stroke-linecap="round"/>
<path d="M77.0514 34.4141C76.7248 34.9627 76.3513 35.4564 76.0099 35.9929C75.701 36.4783 75.1435 37.033 74.9617 37.5784" stroke="#357560" stroke-width="5" stroke-linecap="round"/>
<path d="M75.8573 35.5485C75.7944 35.898 75.7396 36.3376 75.4991 36.6231C75.3051 36.8535 75.0468 37.2206 74.8987 37.4922C74.8152 37.6453 74.6649 37.7615 74.5703 37.9101C74.4429 38.1104 74.3038 38.3177 74.1591 38.5038C73.9662 38.7518 73.746 38.91 73.5156 39.1174C73.1796 39.4199 72.697 40.0869 72.5703 40.5304C72.5334 40.6595 72.3524 41.0749 72.2452 41.1607C72.0477 41.3187 72.04 41.7558 71.7974 41.8771" stroke="#357560" stroke-width="5" stroke-linecap="round"/>
<path d="M73.8871 39.3098C73.3174 40.0618 72.8824 40.8996 72.3149 41.6715C71.9386 42.1831 71.3788 42.5411 70.935 42.9849C70.7334 43.1865 70.1257 43.7917 70.1257 44.0862" stroke="#357560" stroke-width="5" stroke-linecap="round"/>
<path d="M74.1259 39.8472C74.2461 40.4784 73.9393 41.0004 73.5288 41.4592C73.2073 41.8186 72.9543 42.2448 72.6598 42.6234C72.563 42.7479 72.2553 42.9761 72.2187 43.1044C72.1907 43.2021 71.9866 43.4303 71.8837 43.4891C71.6934 43.5979 71.4888 43.8299 71.3496 43.9999C70.9921 44.4369 70.6582 44.8982 70.3048 45.3399" stroke="#357560" stroke-width="5" stroke-linecap="round"/>
<path d="M72.0362 41.5786C71.8902 42.2602 71.4274 42.9037 71.0511 43.4891C70.7908 43.894 70.5669 44.2939 70.2584 44.6368C69.9195 45.0133 69.5778 45.3834 69.2633 45.7877C69.013 46.1096 68.7071 46.3716 68.5734 46.7728" stroke="#357560" stroke-width="5" stroke-linecap="round"/>
<path d="M70.7825 43.7279C70.9635 44.8596 69.9255 45.7049 69.3529 46.5639C68.8784 47.2757 68.5251 48.1347 67.9167 48.7431" stroke="#357560" stroke-width="5" stroke-linecap="round"/>
<path d="M69.3495 47.1311C68.8309 47.6497 68.336 48.2023 67.7508 48.6237C67.2439 48.9886 66.8143 49.6343 66.5435 50.176" stroke="#357560" stroke-width="5" stroke-linecap="round"/>
<path d="M66.2449 50.4745C66.1482 50.6022 65.9432 50.7769 65.8867 50.9322C65.8258 51.0997 65.8094 51.298 65.7374 51.4563C65.6189 51.717 65.4948 52.006 65.3029 52.2192C65.1715 52.3652 65.1146 52.6206 64.9613 52.7433C64.7675 52.8982 64.5452 53.1362 64.3676 53.3138C64.2587 53.4227 63.9912 53.8019 63.9762 53.9373C63.9546 54.1318 63.6588 54.3807 63.5317 54.5078C63.3959 54.6437 63.1871 54.9039 63.0939 55.0717C63.0155 55.2129 62.8397 55.6698 62.7224 55.7285" stroke="#357560" stroke-width="4" stroke-linecap="round"/>
<path d="M66.0061 51.6686C65.7474 52.1033 65.4416 52.5175 65.2001 52.9522C64.9962 53.3192 64.6898 53.8966 64.3676 54.1728C64.2433 54.2793 64.1025 54.474 64.0359 54.6239C63.9503 54.8164 63.7088 54.9808 63.5582 55.1314C63.2893 55.4004 63.072 55.5666 62.9015 55.9076" stroke="#357560" stroke-width="4" stroke-linecap="round"/>
<path d="M62.5902 56.9567C62.2518 57.2477 62.0113 57.6078 61.7293 57.9489C61.5963 58.1097 61.4565 58.2577 61.3394 58.4334C61.101 58.791 60.8908 59.2086 60.6097 59.5298C60.4525 59.7095 60.3375 59.9751 60.2121 60.1803C60.128 60.3179 60.0219 60.4608 59.9419 60.6049C59.8166 60.8303 59.5771 61.0622 59.4979 61.2999" stroke="#357560" stroke-width="3" stroke-linecap="round"/>
<path d="M61.7216 58.3465C61.6695 58.4253 61.4282 58.7004 61.6173 58.7634" stroke="#357560" stroke-width="3" stroke-linecap="round"/>
<path d="M59.4284 61.4736C59.3433 61.7237 59.2339 62.0287 59.0539 62.2303C58.944 62.3533 58.8138 62.5561 58.7701 62.709C58.6514 63.1246 58.3512 63.4889 58.1602 63.871C58.0397 64.1119 57.8613 64.3278 57.7085 64.5485C57.6083 64.6932 57.5369 64.8616 57.4209 64.9906C57.3418 65.0785 57.282 65.2398 57.222 65.3477C57.2064 65.3758 57.1563 65.4793 57.1661 65.4654C57.3292 65.2336 57.5123 65.0199 57.6911 64.8014C58.0623 64.3477 58.4737 63.9269 58.8396 63.4695C58.9704 63.306 59.2038 63.0201 59.3936 62.9252C59.4587 62.8926 59.5296 62.8278 59.5809 62.7765C59.6819 62.6755 59.3525 63.0731 59.3048 63.124C58.8542 63.6057 58.4175 64.0545 58.0386 64.5929C57.8728 64.8285 57.637 65.0231 57.4498 65.2415C57.3973 65.3028 57.2481 65.4693 57.1699 65.4693" stroke="#357560" stroke-width="2" stroke-linecap="round"/>
<path d="M81.6278 28.0706C81.5504 27.3627 81.7408 26.8928 82.016 26.2737C82.0484 26.2008 82.4344 25.5829 82.5622 25.8568C82.6955 26.1422 82.4868 26.6419 82.3646 26.8954C82.1814 27.2754 81.9609 27.6642 81.6278 27.2153C81.3753 26.8749 81.1761 26.4749 81.1247 26.0509C81.0965 25.8185 80.9756 25.3812 81.078 25.156C81.2002 24.8871 81.0802 25.7767 80.927 26.0293C80.7782 26.2746 80.2841 26.968 80.1256 26.4103C79.9353 25.7406 80.1352 25.2603 80.2406 24.6277C80.3758 23.8164 80.7526 23.2499 81.3763 22.7301C82.0562 22.1636 82.7341 21.6664 83.6656 21.6664C83.8361 21.6664 83.9478 21.7622 84.0717 21.8748C84.188 21.9805 84.3098 22.345 84.4418 22.3743C84.7686 22.447 84.9251 22.7475 85.1211 22.9925C85.5584 23.5391 85.962 24.2039 85.962 24.9655C85.962 25.5932 86.0267 26.2096 86.0267 26.8415C86.0267 27.3372 85.962 27.7912 85.962 28.2791C85.962 28.6089 85.8787 29.0636 86.0124 29.3644C86.0685 29.4907 85.9931 29.6511 86.0303 29.7813C86.1104 30.0616 85.8042 29.7922 85.6098 29.7238C84.4052 29.2999 83.2618 28.6617 82.0304 28.3294C81.3145 28.1362 80.415 28.2647 79.6728 28.2647C79.1393 28.2647 78.6137 28.3179 78.0843 28.3294C77.9791 28.3317 77.5555 28.3416 77.4877 28.4264C77.3043 28.6556 77.1502 28.6528 76.8085 28.6528C76.3856 28.6528 75.978 28.8194 75.5794 28.908C75.4747 28.9312 75.2583 28.858 75.1733 28.926C75.0726 29.0065 74.8981 29.0547 74.7707 29.1057C73.5641 29.5883 72.1486 29.4627 70.9864 30.1084C70.6846 30.276 70.3011 30.3198 69.9837 30.4785C69.7244 30.6082 69.4681 30.7654 69.2074 30.9026C68.621 31.2113 68.0328 31.4905 67.4608 31.8083C67.1939 31.9565 66.9487 32.043 66.6845 32.1605C66.3907 32.291 66.0582 32.2888 65.7645 32.4695C65.4972 32.634 65.1603 32.7157 64.8732 32.8433C64.6583 32.9388 64.2504 33.2458 64.0323 33.2458" stroke="#357560" stroke-width="5" stroke-linecap="round"/>
<path d="M71.1481 29.8819C71.848 29.1987 72.4999 28.5648 73.4158 28.1641C73.9125 27.9468 74.4128 27.6674 74.9001 27.4237C75.5049 27.1213 76.1069 26.7942 76.7402 26.554C77.3949 26.3057 78.056 26.1561 78.7168 25.9359" stroke="#357560" stroke-width="5" stroke-linecap="round"/>
<path d="M82.6628 24.9655C83.0184 24.9655 83.4571 25.0303 83.7769 24.8361C84.097 24.6418 84.3907 24.4174 84.7042 24.218C85.1507 23.9339 85.4688 23.5774 85.962 23.413" stroke="#357560" stroke-width="5" stroke-linecap="round"/>
<path d="M64.4204 32.9223C63.4568 33.4613 62.5092 34.0123 61.5884 34.6043C60.8189 35.0989 59.9672 35.4846 59.1518 35.8981C58.7522 36.1007 58.3706 36.3263 57.9802 36.545C57.675 36.7158 57.3111 37.0329 56.9811 37.1272C56.7496 37.1933 56.5315 37.4674 56.3198 37.5944C56.1114 37.7194 55.927 37.8672 55.7232 37.9969C55.4266 38.1856 55.1732 38.4435 54.8787 38.6474C54.4795 38.9237 54.1163 39.2562 53.7142 39.5243C53.5192 39.6543 53.3477 39.8612 53.1788 40.0238C53.0466 40.1511 52.8383 40.1756 52.7762 40.3617" stroke="#357560" stroke-width="5" stroke-linecap="round"/>
<path d="M80.9163 23.8011C80.7541 23.483 80.4528 23.1213 80.3341 22.7948C80.2649 22.6047 80.0837 22.4782 80.0106 22.2773C79.8997 21.9723 79.6225 21.6784 79.6225 21.3429C79.6225 20.7496 79.9567 20.3947 80.4634 20.0851C80.6905 19.9463 80.8863 19.9197 81.1427 19.9197C81.2965 19.9197 81.4939 20.1374 81.2721 20.236C80.8901 20.4058 79.9263 19.9453 79.5937 19.776C78.6958 19.3189 77.8315 18.7171 76.9055 18.3312C76.2672 18.0653 75.6923 17.6644 75.0942 17.3321C74.4497 16.9741 73.7827 16.6674 73.1032 16.3762C72.8212 16.2553 72.322 16.1772 72.1185 15.9737" stroke="#357560" stroke-width="5" stroke-linecap="round"/>
<path d="M80.0753 22.8954C79.5503 21.1747 77.7433 20.5016 76.5138 19.395C75.8115 18.763 74.883 18.2352 74.0663 17.7526C73.6152 17.486 73.0642 17.1071 72.5425 17.0123C72.3057 16.9692 72.0127 16.8075 71.8238 16.6529C71.5203 16.4046 71.1596 16.1746 70.8247 15.9737C70.352 15.69 69.9168 15.3394 69.4303 15.0824C68.4258 14.5517 67.403 13.9379 66.2964 13.6305C65.3191 13.359 64.3163 12.6351 63.4788 12.0923C62.9219 11.7313 62.4002 11.1385 61.7681 10.9279" stroke="#357560" stroke-width="5" stroke-linecap="round"/>
<path d="M74.4473 17.1381C74.6151 17.3688 74.7384 17.5539 74.4976 17.7706C74.3971 17.8611 74.1942 18.0412 74.1885 18.1875C74.1755 18.5257 73.8667 18.2394 73.7213 18.094C73.5134 17.8861 73.2847 17.6498 73.0241 17.5118C72.5618 17.267 72.0635 17.106 71.6656 16.7499C71.1096 16.2524 70.3282 15.9664 69.6639 15.6538C69.3214 15.4927 68.9452 15.3611 68.5893 15.2261C68.2617 15.1019 67.9384 14.9018 67.6333 14.7302C67.4417 14.6224 67.2314 14.3884 67.0044 14.36C66.4206 14.287 65.8259 13.8649 65.2757 13.6448C64.3568 13.2772 63.6103 12.6155 62.7385 12.1713C62.1334 11.8631 61.5995 11.4941 61.0601 11.0896C60.6307 10.7675 61.5012 10.5397 61.7358 10.5397C62.1043 10.5397 62.5943 10.6853 62.8714 10.9279C63.194 11.2101 63.5131 11.6674 63.9029 11.8623C64.4829 12.1523 65.0469 12.525 65.6639 12.7536C66.3393 13.0037 67.072 13.1917 67.7196 13.5155C68.5875 13.9494 69.3336 14.5925 70.2748 14.9063C70.4823 14.9754 70.6914 15.0389 70.8894 15.1327C71.0226 15.1958 71.3578 15.4478 71.2919 15.316C71.1908 15.1138 70.5903 14.8445 70.4078 14.7158C69.9903 14.4215 69.5765 14.1475 69.0816 14.0042C67.7712 13.6249 66.3953 13.1143 65.2614 12.351C64.7582 12.0124 64.486 11.4911 63.9244 11.2369C62.6033 10.639 61.1044 10.5409 59.8418 9.84252C58.9374 9.34221 58.086 8.84791 57.2255 8.26121C55.9143 7.3672 54.2366 7.04911 52.7834 6.46787C52.1967 6.23316 51.613 5.96105 51.0404 5.6916C50.8847 5.61833 50.7552 5.58168 50.6487 5.45081C50.6091 5.40218 50.2843 4.9836 50.3001 4.9836C50.907 4.9836 51.3785 5.56651 51.8203 5.88207C52.5167 6.37952 53.1941 6.73858 53.991 7.04649C54.1203 7.09643 54.233 7.08629 54.3612 7.11477C54.6599 7.18117 54.9807 7.41099 55.2776 7.51369C56.1828 7.82676 57.0741 8.17817 57.9766 8.49841C58.5606 8.70564 59.1041 9.00828 59.6909 9.21C59.8115 9.25145 60.398 9.51094 60.2946 9.5011C59.4588 9.4215 58.7604 8.91469 58.0125 8.57029C56.6974 7.96463 55.2902 7.55147 53.9658 6.96023C53.5137 6.7584 53.2067 6.57751 52.841 6.23786C52.6393 6.05057 52.4351 5.87864 52.2228 5.70238C52.1332 5.62802 51.8814 5.44309 52.0719 5.688C52.3946 6.10299 52.9048 6.33214 53.2794 6.67272C53.7147 7.06841 54.1657 7.33508 54.681 7.59275C55.0575 7.78098 55.2301 8.19027 55.5579 8.39059C55.6995 8.47711 55.8885 8.65324 55.9784 8.79311C56.0984 8.97981 56.4572 9.11338 56.6576 9.21359C57.0032 9.38635 57.3476 9.55856 57.6927 9.73111C57.9903 9.8799 58.3204 10.0182 58.6343 10.1228C58.922 10.2187 59.1354 10.475 59.4393 10.475" stroke="#357560" stroke-width="5" stroke-linecap="round"/>
<path d="M51.5472 6.78773C50.6227 6.43054 49.6555 6.05605 48.7008 5.81738" stroke="#357560" stroke-width="5" stroke-linecap="round"/>
<path d="M51.2237 6.27021C50.2854 5.99985 49.4197 5.65513 48.5211 5.29987C47.7889 5.01037 46.8622 4.71766 46.0809 4.71766C45.6537 4.71766 45.243 4.69507 44.8194 4.65657C44.2932 4.60873 43.7488 4.7172 43.2273 4.62063C42.7091 4.52465 42.1208 4.58828 41.5921 4.58828C41.2264 4.58828 40.8841 4.58298 40.5355 4.71766C39.8333 4.98896 39.2235 5.37186 38.5445 5.67363C38.4631 5.70982 38.3752 5.7527 38.2858 5.7527C38.0725 5.7527 38.7016 5.65483 38.9039 5.58738C39.1385 5.50918 39.4415 5.36456 39.6766 5.36456C39.9308 5.36456 40.149 5.35662 40.3882 5.30346C40.7669 5.2193 39.6289 5.46453 39.2525 5.55863C38.9194 5.64191 38.6572 5.81749 38.3217 5.87848C38.1091 5.91713 37.6504 6.03518 37.4448 5.93239C37.2622 5.8411 36.908 5.47221 36.8123 5.29987C36.6495 5.00691 37.0956 4.99956 37.3154 4.97642C37.6243 4.94391 37.9219 4.78248 38.2211 4.70329C38.5258 4.62262 38.8255 4.57493 39.1267 4.49125C39.7838 4.30872 40.5216 4.2805 41.1932 4.19655C41.966 4.09995 42.7401 3.8767 43.5256 3.8767C45.0829 3.8767 46.6075 3.68338 48.1186 4.10311C49.0688 4.36706 50.0056 4.76324 50.9649 4.97642C51.543 5.10487 52.0792 5.38256 52.6541 5.52628C53.0011 5.61305 53.3685 5.65854 53.7107 5.75629C53.8455 5.79483 53.9836 5.90897 54.1347 5.94677" stroke="#357560" stroke-width="5" stroke-linecap="round"/>
</svg>
