<svg xmlns="http://www.w3.org/2000/svg" width="50" height="45" viewBox="0 0 50 45" fill="#86c33a">
  <defs>
    <style>
      .cls-1 {
        fill: #86c33a;
        fill-rule: evenodd;
      }
    </style>
  </defs>
  <path class="cls-1" d="M302.266,4865.04a0.979,0.979,0,0,0,.976-0.98v-3.15a4.9,4.9,0,0,0-4.883-4.91H284.883a4.9,4.9,0,0,0-4.883,4.91v11.79a4.9,4.9,0,0,0,4.883,4.91H291.2c-0.222,7.34-2.99,11.16-8.443,11.66a0.976,0.976,0,0,0-.888.98v9.77a0.968,0.968,0,0,0,.306.71,0.988,0.988,0,0,0,.67.27H282.9c6.73-.38,11.867-2.71,15.269-6.93,3.366-4.17,5.073-10.26,5.073-18.11v-3.52a0.977,0.977,0,1,0-1.953,0v3.52c0,14.41-5.716,21.94-17.467,23v-7.84a9.766,9.766,0,0,0,6.837-4.15c1.665-2.42,2.509-5.9,2.509-10.34a0.979,0.979,0,0,0-.977-0.98h-7.308a2.941,2.941,0,0,1-2.93-2.95v-11.79a2.947,2.947,0,0,1,2.93-2.95h13.476a2.947,2.947,0,0,1,2.93,2.95v3.15A0.979,0.979,0,0,0,302.266,4865.04Zm22.851-9.04H311.641a4.9,4.9,0,0,0-4.883,4.91v11.79a4.9,4.9,0,0,0,4.883,4.91h6.317c-0.222,7.34-2.99,11.16-8.443,11.66a0.976,0.976,0,0,0-.888.98v9.77a0.967,0.967,0,0,0,.305.71,0.989,0.989,0,0,0,.671.27h0.055c6.729-.38,11.867-2.71,15.269-6.93,3.366-4.17,5.073-10.26,5.073-18.11v-15.05A4.9,4.9,0,0,0,325.117,4856Zm2.93,19.96c0,14.41-5.716,21.94-17.467,23v-7.84a9.766,9.766,0,0,0,6.837-4.15c1.665-2.42,2.509-5.9,2.509-10.34a0.98,0.98,0,0,0-.977-0.98h-7.308a2.941,2.941,0,0,1-2.93-2.95v-11.79a2.947,2.947,0,0,1,2.93-2.95h11.718v7.28a0.977,0.977,0,1,0,1.953,0v-7.27a2.942,2.942,0,0,1,2.735,2.94v15.05Zm-3.711-8.29a0.985,0.985,0,1,0,.976.98v-0.01A0.97,0.97,0,0,0,324.336,4867.67Zm-22.07-.4a0.979,0.979,0,0,0-.977.98v0.02a0.977,0.977,0,1,0,1.953,0v-0.02A0.979,0.979,0,0,0,302.266,4867.27Z" transform="translate(-280 -4856)"/>
</svg>
