<svg viewBox="0 0 128 128" xmlns="http://www.w3.org/2000/svg"><g fill="none" stroke="#1d9cd3" stroke-linecap="round" stroke-linejoin="round" stroke-width="3"><path d="m74.36 33.88a28.07 28.07 0 1 0 7.52 4.51l-22.08 33.44-11.88-15.83"/><path d="m90.61 20.82-5.6.24-13.39-10.32a11.34 11.34 0 0 0 -14.21-.21l-14.41 10.53-5.6-.24c-10.57-.53-18.82-3.53-18.82 11s2 38.05 2 38.05-1.23 17.63 19.17 32.53c17.54 12.82 24.18 17.46 24.18 17.46s6.78-4.64 24.32-17.46c20.4-14.9 19.22-32.55 19.22-32.55s2-23.54 2-38-8.25-11.51-18.82-11"/></g></svg>